<?xml version="1.0" standalone="no"?>
<!DOCTYPE svg PUBLIC "-//W3C//DTD SVG 20010904//EN"
 "http://www.w3.org/TR/2001/REC-SVG-20010904/DTD/svg10.dtd">
<svg version="1.0" xmlns="http://www.w3.org/2000/svg"
 width="500.000000pt" height="500.000000pt" viewBox="0 0 500.000000 500.000000"
 preserveAspectRatio="xMidYMid meet">

<g transform="translate(0.000000,500.000000) scale(0.100000,-0.100000)"
fill="#1a0b01" stroke="none">
<path d="M2327 4543 c-12 -122 -9 -153 12 -153 15 0 20 10 25 45 10 67 44 59
63 -15 7 -25 16 -36 31 -38 12 -2 22 2 22 9 0 30 -25 91 -42 100 -17 9 -16 13
17 53 19 24 35 46 35 50 0 9 -50 8 -50 -1 0 -5 -16 -26 -36 -48 l-35 -40 4 47
c4 45 -3 58 -32 58 -5 0 -11 -30 -14 -67z"/>
<path d="M2111 4543 c1 -27 4 -75 8 -108 l6 -60 45 4 c51 3 95 23 104 46 20
53 -13 95 -74 95 -37 0 -39 2 -46 35 -4 25 -11 35 -25 35 -16 0 -19 -7 -18
-47z m113 -75 c14 -23 -3 -52 -32 -56 -16 -2 -23 3 -28 22 -3 14 -3 33 0 42 8
20 45 15 60 -8z"/>
<path d="M1974 4566 c-51 -23 -77 -64 -71 -114 9 -83 80 -123 162 -92 42 16
25 36 -28 32 -55 -4 -87 21 -87 69 0 44 16 66 52 74 44 10 48 13 41 30 -6 18
-28 18 -69 1z"/>
<path d="M2556 4477 c-31 -53 -56 -98 -56 -101 0 -16 45 -3 61 18 15 20 24 23
47 17 21 -6 28 -14 30 -39 2 -18 7 -32 12 -32 5 0 16 -3 24 -6 15 -6 16 5 10
107 -4 63 -8 115 -9 116 -1 2 -15 6 -32 9 -30 6 -32 4 -87 -89z m84 3 c0 -33
-3 -40 -19 -40 -29 0 -33 15 -14 49 24 41 33 39 33 -9z"/>
<path d="M1725 4483 c-16 -8 -32 -17 -34 -19 -2 -2 14 -46 35 -98 28 -68 44
-96 56 -96 26 0 30 16 14 49 -15 28 -15 29 24 55 33 22 40 32 40 60 0 19 -8
40 -18 49 -23 21 -78 21 -117 0z m79 -29 c9 -8 16 -19 16 -24 0 -13 -30 -40
-44 -40 -6 0 -17 13 -23 30 -9 25 -9 32 5 40 23 13 28 12 46 -6z"/>
<path d="M1562 4399 c-50 -29 -52 -32 -39 -53 7 -11 33 -54 56 -94 l42 -73 50
27 c58 32 71 45 60 62 -6 10 -16 8 -46 -9 -37 -22 -38 -22 -51 -4 -20 27 -18
33 16 50 31 16 35 22 22 42 -6 9 -15 7 -37 -7 -37 -25 -42 -25 -55 -1 -8 16
-4 23 26 41 33 21 40 40 18 47 -5 1 -33 -11 -62 -28z"/>
<path d="M2800 4397 c0 -7 20 -23 44 -34 37 -18 45 -19 50 -7 3 9 -8 21 -34
34 -46 23 -60 25 -60 7z"/>
<path d="M2986 4318 c-54 -85 -57 -93 -40 -105 16 -11 22 -6 62 55 25 37 48
71 52 76 9 9 70 -23 70 -36 0 -4 -21 -40 -46 -79 -45 -71 -46 -74 -12 -91 6
-3 104 140 114 167 4 9 -124 105 -138 105 -2 0 -29 -41 -62 -92z"/>
<path d="M1406 4294 c-74 -55 -70 -50 -62 -70 6 -15 8 -15 31 0 13 9 26 16 28
16 2 0 26 -28 52 -62 27 -35 51 -66 54 -70 3 -4 14 0 25 7 17 13 16 17 -26 72
-63 82 -63 82 -39 107 17 18 19 25 9 34 -10 8 -28 -1 -72 -34z"/>
<path d="M3185 4198 c-33 -40 -63 -77 -67 -84 -5 -7 12 -28 43 -54 45 -37 52
-41 65 -28 13 13 11 18 -20 42 -31 24 -34 29 -23 46 15 25 21 25 57 -2 24 -18
33 -19 43 -9 9 10 5 18 -21 39 -30 25 -31 29 -19 47 14 19 15 19 50 -8 31 -23
37 -25 47 -11 7 8 11 16 9 17 -2 2 -25 20 -50 40 -25 20 -48 37 -50 37 -2 0
-31 -33 -64 -72z"/>
<path d="M1271 4186 c-9 -11 -6 -33 12 -100 14 -47 22 -86 18 -86 -3 0 -28 25
-55 56 -44 50 -50 54 -64 40 -14 -13 -8 -22 53 -88 38 -40 74 -74 80 -76 7 -2
18 4 25 13 11 13 11 26 0 73 -7 31 -17 65 -22 75 -19 37 1 27 48 -23 43 -46
49 -49 63 -35 14 14 8 22 -59 90 -41 41 -77 75 -81 75 -4 0 -12 -6 -18 -14z"/>
<path d="M3317 4069 c-62 -57 -75 -74 -66 -85 16 -20 29 -17 60 12 47 45 60
16 28 -63 -11 -26 -10 -34 1 -48 12 -15 16 -12 36 27 13 24 23 55 24 70 0 25
4 27 56 34 55 6 56 7 37 25 -16 17 -25 18 -68 10 -28 -5 -52 -7 -54 -5 -3 2
10 19 27 37 25 26 29 36 20 45 -7 7 -14 12 -17 12 -4 0 -41 -32 -84 -71z"/>
<path d="M2132 4110 c-97 -26 -150 -50 -248 -115 -224 -150 -418 -453 -518
-813 -194 -694 -35 -1511 374 -1923 177 -178 349 -259 555 -259 107 0 198 21
297 68 408 193 691 752 715 1412 25 719 -265 1364 -711 1580 -144 70 -317 88
-464 50z m314 -20 c405 -102 722 -559 815 -1175 25 -165 30 -459 10 -620 -53
-423 -194 -765 -412 -998 -118 -127 -227 -199 -375 -249 -58 -19 -89 -23 -194
-22 -113 0 -133 3 -207 30 -263 98 -485 339 -622 680 -103 256 -140 450 -148
765 -3 138 -1 254 7 320 50 440 202 799 439 1038 206 208 451 291 687 231z"/>
<path d="M2198 4043 c6 -2 18 -2 25 0 6 3 1 5 -13 5 -14 0 -19 -2 -12 -5z"/>
<path d="M2368 4043 c6 -2 18 -2 25 0 6 3 1 5 -13 5 -14 0 -19 -2 -12 -5z"/>
<path d="M2620 3966 c0 -3 9 -10 20 -16 11 -6 20 -8 20 -6 0 3 -9 10 -20 16
-11 6 -20 8 -20 6z"/>
<path d="M1869 3903 c-13 -16 -12 -17 4 -4 9 7 17 15 17 17 0 8 -8 3 -21 -13z"/>
<path d="M2730 3896 c0 -2 8 -10 18 -17 15 -13 16 -12 3 4 -13 16 -21 21 -21
13z"/>
<path d="M1819 3863 l-24 -28 28 24 c25 23 32 31 24 31 -2 0 -14 -12 -28 -27z"/>
<path d="M2810 3825 c19 -19 36 -35 39 -35 3 0 -10 16 -29 35 -19 19 -36 35
-39 35 -3 0 10 -16 29 -35z"/>
<path d="M1715 3758 l-40 -43 43 40 c39 36 47 45 39 45 -2 0 -21 -19 -42 -42z"/>
<path d="M2860 3767 c0 -2 15 -16 33 -33 l32 -29 -29 33 c-28 30 -36 37 -36
29z"/>
<path d="M1659 3693 c-13 -16 -12 -17 4 -4 9 7 17 15 17 17 0 8 -8 3 -21 -13z"/>
<path d="M2920 3696 c0 -2 8 -10 18 -17 15 -13 16 -12 3 4 -13 16 -21 21 -21
13z"/>
<path d="M1570 3560 c-6 -11 -8 -20 -6 -20 3 0 10 9 16 20 6 11 8 20 6 20 -3
0 -10 -9 -16 -20z"/>
<path d="M3030 3530 c6 -11 13 -20 16 -20 2 0 0 9 -6 20 -6 11 -13 20 -16 20
-2 0 0 -9 6 -20z"/>
<path d="M2141 3394 c-19 -8 -32 -17 -28 -20 3 -3 22 4 44 15 44 23 34 27 -16
5z"/>
<path d="M2493 3355 c41 -40 56 -82 65 -180 5 -55 10 -85 11 -67 0 17 6 32 12
32 7 0 8 11 4 31 -4 19 -2 41 6 56 11 20 10 28 -6 56 -21 37 -74 86 -93 87
-10 0 -10 -3 1 -15z"/>
<path d="M2053 3297 c-12 -18 -25 -41 -29 -52 -4 -11 -15 -30 -25 -43 -9 -12
-20 -42 -24 -65 -4 -23 -11 -47 -16 -53 -5 -6 -8 -35 -7 -65 1 -89 -1 -107
-18 -123 -13 -14 -13 -16 -1 -16 9 0 19 -16 25 -37 9 -34 10 -35 11 -10 1 29
31 40 31 10 0 -15 2 -15 18 0 15 14 19 14 42 -5 30 -24 121 -23 132 2 13 29 8
97 -7 110 -18 15 -89 17 -152 5 -40 -7 -43 -6 -43 14 0 13 9 26 23 32 l22 10
-23 -5 c-23 -5 -24 -4 -17 57 9 82 42 195 67 230 11 16 18 30 16 32 -2 2 -13
-11 -25 -28z m74 -395 c6 -4 -9 -7 -34 -8 -27 -1 -39 2 -31 7 16 11 49 11 65
1z m-37 -36 c0 -8 8 -17 18 -19 9 -3 3 -5 -15 -6 -26 -1 -30 2 -26 19 6 23 23
27 23 6z m60 -11 c0 -8 -4 -15 -10 -15 -5 0 -10 7 -10 15 0 8 5 15 10 15 6 0
10 -7 10 -15z"/>
<path d="M2260 2935 c0 -32 24 -87 44 -100 41 -27 126 5 126 47 0 21 -13 30
-35 22 -12 -5 -15 -14 -10 -31 4 -18 2 -24 -7 -21 -22 8 -21 46 2 58 25 13 60
4 60 -16 0 -8 12 -19 26 -25 34 -12 39 -7 14 16 -25 22 -26 39 -2 31 16 -7 16
-6 -1 11 -15 15 -35 18 -117 18 -60 0 -100 -4 -100 -10z"/>
<path d="M2656 2935 c4 -8 8 -15 10 -15 2 0 4 7 4 15 0 8 -4 15 -10 15 -5 0
-7 -7 -4 -15z"/>
<path d="M2742 2910 c-15 -25 -16 -38 0 -22 22 22 28 12 30 -55 l1 -68 7 65
c7 73 3 100 -14 100 -6 0 -17 -9 -24 -20z"/>
<path d="M1342 2860 c0 -14 2 -19 5 -12 2 6 2 18 0 25 -3 6 -5 1 -5 -13z"/>
<path d="M2702 2838 c-15 -15 -16 -40 -2 -54 5 -5 11 -22 12 -37 2 -24 3 -25
20 -10 22 20 23 41 2 81 -18 37 -16 36 -32 20z"/>
<path d="M1908 2790 c-3 -39 -3 -40 15 -21 13 12 17 26 12 40 -10 33 -23 25
-27 -19z"/>
<path d="M3252 2800 c0 -14 2 -19 5 -12 2 6 2 18 0 25 -3 6 -5 1 -5 -13z"/>
<path d="M1333 2770 c0 -25 2 -35 4 -22 2 12 2 32 0 45 -2 12 -4 2 -4 -23z"/>
<path d="M1948 2762 c-7 -51 -15 -62 -29 -42 -8 12 -9 11 -7 -5 2 -12 11 -19
21 -19 9 1 17 -5 17 -13 0 -8 7 -21 15 -29 8 -9 15 -29 15 -45 0 -26 -3 -30
-22 -27 -12 2 -33 18 -45 37 -13 19 -23 29 -23 23 0 -19 51 -72 70 -72 18 0
58 -73 91 -165 8 -20 28 -54 46 -74 l32 -36 1 41 c0 52 23 130 46 155 12 14
31 19 68 19 31 0 46 4 41 9 -6 6 -32 6 -70 0 -83 -15 -117 -15 -154 0 -36 15
-48 46 -34 88 10 30 43 45 43 19 0 -9 6 -16 13 -16 16 0 49 33 46 46 -4 26 3
43 21 49 11 3 20 11 20 16 0 20 -43 -14 -53 -42 -13 -33 -31 -36 -90 -16 -52
19 -61 30 -67 90 l-6 52 -6 -43z"/>
<path d="M2661 2734 c0 -11 3 -14 6 -6 3 7 2 16 -1 19 -3 4 -6 -2 -5 -13z"/>
<path d="M2300 2733 c0 -5 10 -13 23 -18 12 -6 23 -20 25 -32 2 -12 19 -36 38
-53 36 -31 54 -38 54 -20 0 6 -4 10 -10 10 -17 0 -11 18 8 23 9 3 4 5 -13 6
-38 2 -50 10 -59 39 -7 21 -66 61 -66 45z"/>
<path d="M2735 2710 c-3 -5 -1 -10 4 -10 6 0 11 5 11 10 0 6 -2 10 -4 10 -3 0
-8 -4 -11 -10z"/>
<path d="M3264 2565 c0 -88 2 -123 3 -77 2 46 2 118 0 160 -1 42 -3 5 -3 -83z"/>
<path d="M2652 2678 c3 -37 31 -50 42 -21 4 9 4 14 0 10 -11 -11 -33 13 -27
29 3 8 0 14 -7 14 -7 0 -10 -13 -8 -32z"/>
<path d="M1324 2560 c0 -69 1 -97 3 -62 2 34 2 90 0 125 -2 34 -3 6 -3 -63z"/>
<path d="M2735 2654 c-9 -15 -12 -23 -6 -20 11 7 35 46 28 46 -3 0 -12 -12
-22 -26z"/>
<path d="M2280 2635 c-16 -19 -1 -19 24 0 16 12 17 15 4 15 -8 0 -21 -7 -28
-15z"/>
<path d="M2628 2618 c-6 -15 20 -37 43 -38 9 0 23 8 30 17 13 15 12 15 -6 5
-16 -9 -24 -7 -41 9 -16 15 -23 17 -26 7z"/>
<path d="M2184 2606 c11 -9 26 -16 33 -16 7 0 13 -7 13 -15 0 -8 -8 -15 -17
-15 -24 -1 -108 -39 -100 -46 3 -3 28 5 56 17 40 17 63 20 104 16 51 -5 51 -5
17 7 -19 7 -36 20 -38 29 -2 10 -12 17 -23 17 -11 0 -30 5 -42 11 -21 10 -21
10 -3 -5z"/>
<path d="M2353 2533 c9 -2 25 -2 35 0 9 3 1 5 -18 5 -19 0 -27 -2 -17 -5z"/>
<path d="M2564 2484 c-32 -41 -150 -136 -194 -156 -30 -13 -40 -28 -20 -28 35
0 184 101 202 137 8 16 22 40 32 56 26 39 12 33 -20 -9z"/>
<path d="M2617 2453 c-2 -4 -5 -28 -6 -52 -2 -67 -42 -120 -229 -303 -189
-185 -407 -446 -465 -555 -21 -40 -40 -73 -42 -73 -5 0 30 92 46 122 8 14 7
57 -2 144 -18 185 -12 218 60 363 59 117 62 125 59 187 l-3 65 -77 -53 c-91
-63 -183 -140 -204 -173 -15 -23 -14 -25 20 -56 20 -17 36 -35 36 -41 0 -5
-12 2 -27 16 -16 14 -36 32 -47 39 -18 13 -18 15 -1 41 l18 27 -69 -26 c-132
-51 -149 -56 -183 -60 -19 -2 -51 -11 -72 -20 -33 -15 -37 -20 -28 -37 5 -10
7 -22 4 -27 -3 -5 0 -11 6 -13 7 -2 12 -18 13 -35 0 -17 5 -29 10 -25 5 3 7
-5 4 -16 -4 -14 -2 -20 4 -16 6 4 8 -2 3 -16 -5 -15 -4 -20 4 -16 7 4 9 1 5
-8 -3 -8 20 -67 50 -131 157 -330 378 -543 633 -609 88 -23 241 -21 331 4 214
59 406 222 550 466 18 30 28 53 22 49 -6 -4 -6 4 1 19 7 14 17 23 23 19 6 -3
8 -3 4 1 -3 4 12 43 33 86 25 49 37 84 32 96 -4 11 -3 15 4 11 14 -9 24 18 16
40 -5 11 -3 14 6 8 10 -6 11 -2 6 15 -4 12 -3 20 1 17 5 -3 10 15 11 39 2 42
1 44 -35 54 -20 5 -45 10 -54 10 -10 0 -69 29 -133 65 -64 36 -118 65 -121 65
-2 0 -4 -8 -4 -17 0 -10 -22 -58 -49 -108 -37 -69 -53 -89 -67 -87 -11 1 -62
4 -114 6 -107 5 -168 14 -176 27 -3 6 45 7 118 3 68 -4 134 -7 148 -8 21 -1
33 12 72 78 68 112 67 118 -43 273 -51 70 -93 129 -94 131 -2 2 -5 0 -8 -5z
m-931 -551 c0 -138 10 -220 45 -366 22 -94 18 -112 -6 -29 -47 160 -80 432
-61 507 14 56 21 20 22 -112z m1048 20 c5 -9 -60 -75 -164 -164 -36 -31 -127
-112 -203 -181 -140 -128 -445 -373 -453 -364 -2 2 39 39 93 83 332 271 708
608 697 625 -3 5 2 9 10 9 8 0 17 -4 20 -8z m-324 -87 c0 -8 -7 -15 -15 -15
-8 0 -15 7 -15 15 0 8 7 15 15 15 8 0 15 -7 15 -15z m357 -392 c-3 -10 -5 -4
-5 12 0 17 2 24 5 18 2 -7 2 -21 0 -30z m-10 -135 c-2 -24 -4 -7 -4 37 0 44 2
63 4 43 2 -21 2 -57 0 -80z"/>
<path d="M1333 2355 c0 -27 2 -38 4 -22 2 15 2 37 0 50 -2 12 -4 0 -4 -28z"/>
<path d="M3253 2330 c0 -25 2 -35 4 -22 2 12 2 32 0 45 -2 12 -4 2 -4 -23z"/>
<path d="M2105 2270 c21 -22 41 -40 44 -40 3 0 -13 18 -34 40 -21 22 -41 40
-44 40 -3 0 13 -18 34 -40z"/>
<path d="M1342 2270 c0 -19 2 -27 5 -17 2 9 2 25 0 35 -3 9 -5 1 -5 -18z"/>
<path d="M2136 2280 c21 -43 44 -57 82 -50 21 3 50 5 64 3 15 -2 29 1 33 7 4
6 -9 10 -35 10 -30 0 -39 3 -34 13 6 8 3 8 -9 -1 -9 -8 -20 -11 -25 -9 -4 3
-14 2 -21 -3 -9 -5 -22 1 -38 19 -14 14 -21 19 -17 11z"/>
<path d="M3242 2250 c0 -19 2 -27 5 -17 2 9 2 25 0 35 -3 9 -5 1 -5 -18z"/>
<path d="M1352 2200 c0 -14 2 -19 5 -12 2 6 2 18 0 25 -3 6 -5 1 -5 -13z"/>
<path d="M2150 2201 c0 -12 3 -21 8 -21 4 -1 26 -4 48 -9 36 -7 41 -6 37 9 -3
12 -12 15 -32 12 -17 -2 -34 3 -44 13 -16 15 -17 15 -17 -4z"/>
<path d="M3232 2180 c0 -14 2 -19 5 -12 2 6 2 18 0 25 -3 6 -5 1 -5 -13z"/>
<path d="M1361 2144 c0 -11 3 -14 6 -6 3 7 2 16 -1 19 -3 4 -6 -2 -5 -13z"/>
<path d="M3221 2134 c0 -11 3 -14 6 -6 3 7 2 16 -1 19 -3 4 -6 -2 -5 -13z"/>
<path d="M2165 2063 c-38 -30 -72 -60 -74 -66 -4 -12 48 28 114 87 60 53 39
42 -40 -21z"/>
<path d="M2056 1944 c-9 -24 -7 -54 4 -54 14 0 32 39 26 56 -7 19 -22 18 -30
-2z"/>
<path d="M1077 3978 c-52 -65 -51 -63 -2 -110 47 -42 80 -92 71 -106 -2 -4 11
-18 30 -31 27 -19 37 -22 47 -12 9 10 8 15 -5 25 -26 19 -22 36 21 86 l39 45
22 -20 c18 -16 23 -17 31 -5 7 11 1 22 -22 43 -17 16 -36 26 -43 24 -7 -3 -33
11 -57 30 -24 19 -56 44 -71 54 l-26 19 -35 -42z m101 -66 c23 -19 42 -38 42
-42 0 -4 -8 -18 -19 -31 l-19 -23 -50 54 c-46 51 -49 56 -35 72 18 20 21 18
81 -30z"/>
<path d="M3490 3905 c-47 -19 -93 -34 -102 -34 -21 -1 -22 -5 -8 -31 9 -16 15
-17 41 -8 16 6 31 9 32 7 1 -2 11 -14 21 -26 18 -22 18 -24 1 -43 -15 -17 -16
-24 -6 -46 11 -25 12 -25 72 58 34 46 65 88 70 93 5 6 -1 22 -14 37 l-22 26
-85 -33z m53 -50 c-33 -41 -34 -41 -51 -15 -11 18 -10 21 10 29 13 4 30 11 38
14 30 11 30 6 3 -28z"/>
<path d="M955 3809 c-5 -14 -2 -25 6 -30 50 -28 52 -33 35 -67 -19 -37 -25
-38 -68 -16 -30 15 -32 15 -45 -2 -7 -9 -12 -18 -10 -20 1 -1 44 -27 94 -58
88 -53 93 -54 103 -36 9 17 6 23 -25 41 -40 24 -41 27 -17 68 20 37 25 37 63
10 24 -17 33 -18 44 -9 8 7 15 16 15 20 0 5 -125 86 -182 117 -4 2 -10 -6 -13
-18z"/>
<path d="M3595 3734 c-99 -57 -101 -59 -86 -78 11 -13 16 -13 45 1 32 15 33
14 63 -16 37 -36 74 -40 103 -11 11 11 20 33 20 49 0 28 -36 91 -55 98 -6 2
-46 -18 -90 -43z m101 -29 c6 -26 -9 -55 -29 -55 -13 0 -47 30 -47 41 0 8 48
38 62 39 4 0 10 -11 14 -25z"/>
<path d="M3688 3558 c-83 -39 -106 -62 -74 -74 8 -3 29 2 46 11 18 9 33 15 35
13 5 -6 35 -67 35 -72 0 -3 -18 -15 -40 -26 -35 -18 -39 -23 -30 -40 9 -17 15
-16 101 23 91 42 111 59 91 79 -6 6 -20 5 -40 -6 -40 -21 -39 -21 -57 14 -21
41 -19 47 18 66 41 21 39 18 31 38 -9 23 -18 21 -116 -26z"/>
<path d="M819 3561 c-40 -41 -41 -98 -1 -142 23 -26 38 -33 80 -37 47 -4 54
-2 82 26 71 72 14 182 -95 182 -27 0 -44 -8 -66 -29z m124 -40 c44 -37 42 -82
-4 -96 -49 -16 -129 49 -112 91 13 35 79 38 116 5z"/>
<path d="M734 3376 c-4 -17 3 -36 25 -67 17 -23 30 -44 28 -46 -2 -2 -23 3
-45 11 -23 9 -42 11 -42 6 0 -4 -2 -15 -5 -22 -4 -10 23 -23 95 -48 87 -30
102 -33 110 -20 13 20 12 30 0 30 -6 0 -27 7 -48 16 l-37 15 24 20 c14 11 38
19 61 19 34 0 50 12 50 37 0 7 -112 -2 -130 -10 -11 -5 -23 6 -43 38 -16 25
-31 45 -33 45 -2 0 -6 -11 -10 -24z"/>
<path d="M3822 3363 c-7 -3 -17 -15 -22 -27 -8 -21 -12 -22 -62 -16 -29 4 -55
6 -56 4 -2 -1 -1 -12 3 -23 5 -16 15 -21 44 -21 39 0 82 -23 68 -37 -5 -4 -22
-13 -40 -19 -34 -11 -41 -22 -28 -42 6 -11 25 -8 92 16 127 45 118 40 109 71
-23 83 -59 114 -108 94z m63 -64 c8 -24 0 -34 -32 -43 -18 -6 -24 -2 -29 18
-8 32 1 46 31 46 15 0 26 -7 30 -21z"/>
<path d="M1800 919 c-180 -14 -468 -47 -644 -75 -148 -23 -524 -98 -532 -107
-2 -2 27 -131 65 -288 38 -156 71 -293 73 -304 5 -26 6 -25 218 19 865 179
1825 175 2664 -10 87 -19 159 -34 161 -32 6 8 146 610 142 614 -8 8 -268 64
-412 89 -163 28 -388 59 -600 81 -176 19 -950 28 -1135 13z m841 -141 c21 -6
46 -19 56 -30 25 -28 21 -77 -9 -103 l-24 -21 23 -17 c31 -24 38 -58 19 -96
-21 -41 -63 -61 -126 -61 -57 0 -101 19 -124 52 -25 35 -20 56 15 63 26 6 35
3 53 -18 29 -34 54 -40 83 -22 34 23 28 58 -12 65 -23 4 -31 11 -33 32 -3 22
1 27 24 30 35 4 53 30 35 52 -19 22 -67 20 -91 -4 -14 -14 -27 -18 -50 -14
-34 7 -37 19 -14 53 32 46 102 61 175 39z m-361 -174 c0 -84 2 -94 18 -94 18
0 18 -7 13 -103 -1 -5 -11 -7 -23 -5 -17 2 -24 11 -26 32 l-4 29 -98 -6 -97
-5 -7 52 c-3 28 -6 84 -6 124 l0 72 40 0 39 0 3 -92 3 -93 33 -3 32 -3 0 95 0
95 33 3 c17 2 35 2 40 0 4 -2 7 -46 7 -98z m-286 65 c3 -17 6 -74 6 -126 l0
-94 -37 3 c-38 3 -38 3 -41 51 -3 47 -3 47 -38 47 l-36 0 4 -52 3 -53 -37 -3
-36 -3 -6 53 c-3 29 -7 85 -8 123 l-3 70 38 3 c33 3 37 1 37 -20 0 -53 9 -64
47 -60 34 4 35 5 28 38 -8 44 -1 54 39 54 29 0 34 -4 40 -31z m935 5 c22 -9
43 -25 47 -36 3 -10 3 -62 -1 -114 l-7 -95 -37 3 c-22 2 -35 8 -33 16 3 15 2
15 -37 -4 -25 -13 -37 -13 -66 -4 -58 19 -72 69 -32 116 19 22 34 28 80 32 46
4 57 8 57 22 0 25 -36 31 -61 11 -21 -17 -79 -17 -79 -1 0 23 16 44 44 56 41
18 77 17 125 -2z m-1919 -8 c0 -9 16 -17 43 -21 63 -11 95 -34 113 -82 22 -58
12 -104 -31 -141 -18 -17 -43 -33 -55 -37 -14 -5 -19 -12 -15 -23 7 -18 -11
-32 -41 -32 -13 0 -24 8 -27 20 -4 16 -14 20 -46 20 -33 0 -49 7 -78 33 -31
29 -37 41 -41 88 -4 48 -1 59 22 86 14 17 39 36 56 43 17 7 30 20 30 30 0 23
9 30 42 30 17 0 28 -5 28 -14z m655 0 c21 -9 36 -24 40 -38 9 -36 22 -188 16
-193 -2 -3 -19 -5 -38 -5 -23 0 -33 5 -33 15 0 12 -4 11 -20 -5 -25 -25 -95
-27 -122 -3 -10 9 -18 30 -18 49 0 41 43 79 100 89 31 5 40 11 38 23 -5 26
-54 28 -68 3 -14 -28 -70 -30 -70 -3 0 29 22 52 65 67 51 18 68 18 110 1z
m1457 -27 c9 -11 18 -25 21 -32 3 -7 12 -2 26 16 23 28 45 34 70 18 11 -7 7
-18 -23 -54 -20 -24 -36 -48 -36 -53 0 -5 13 -36 29 -69 28 -58 28 -60 9 -63
-40 -7 -65 7 -83 49 l-19 41 -31 -36 c-21 -25 -38 -36 -57 -36 -38 0 -35 14
12 70 22 26 40 53 40 59 0 7 -11 34 -25 61 -14 27 -25 52 -25 55 0 13 76 -8
92 -26z m-1733 0 c36 -13 55 -44 65 -105 14 -81 -40 -153 -105 -139 l-32 7 7
-45 c7 -44 6 -44 -25 -51 -18 -3 -36 -3 -40 1 -4 5 -16 75 -28 157 -23 160
-22 166 27 166 12 0 22 -5 22 -12 0 -7 6 -6 18 4 15 14 37 25 53 27 3 1 20 -4
38 -10z m2046 -23 c40 -17 65 -60 65 -112 l0 -36 -47 6 c-27 4 -63 10 -80 13
-28 4 -33 2 -33 -14 0 -10 5 -24 12 -31 17 -17 57 -15 64 3 7 18 14 18 49 5
22 -8 24 -13 15 -30 -38 -70 -167 -59 -209 17 -21 40 -14 108 16 143 42 51 86
61 148 36z m191 -41 c5 -11 11 -12 26 -4 28 15 75 2 98 -28 39 -50 20 -158
-35 -201 -32 -26 -62 -28 -92 -7 -25 17 -28 14 -37 -38 -6 -34 -10 -38 -29
-33 -12 3 -28 6 -36 6 -16 0 -13 28 20 207 l21 113 29 0 c17 0 32 -6 35 -15z"/>
<path d="M2839 529 c-16 -16 -18 -23 -8 -35 6 -8 17 -14 25 -14 15 0 44 38 44
57 0 20 -38 15 -61 -8z"/>
<path d="M1035 528 c4 -29 11 -62 15 -72 6 -19 7 -19 28 2 39 39 18 122 -30
122 -18 0 -19 -4 -13 -52z"/>
<path d="M927 552 c-35 -38 -8 -122 39 -122 12 0 15 6 10 25 -4 14 -9 45 -13
70 -6 50 -12 54 -36 27z"/>
<path d="M1589 522 c-26 -22 -20 -52 10 -52 21 0 41 27 41 54 0 21 -23 20 -51
-2z"/>
<path d="M1310 575 c-17 -21 -7 -105 15 -121 40 -29 65 24 43 91 -14 43 -37
55 -58 30z"/>
<path d="M3365 567 c-25 -19 -10 -37 31 -37 37 0 43 10 18 34 -19 19 -25 20
-49 3z"/>
<path d="M3637 515 c-23 -22 -32 -104 -14 -123 31 -31 67 13 67 82 0 30 -15
56 -31 56 -4 0 -14 -7 -22 -15z"/>
<path d="M563 722 c-9 -6 -4 -38 16 -122 16 -63 52 -212 80 -330 29 -118 53
-220 56 -226 2 -7 45 -2 132 17 811 180 1685 205 2503 73 157 -26 487 -91 501
-100 4 -2 10 -1 12 3 3 5 39 152 82 328 42 176 79 328 81 337 4 13 0 18 -13
18 -17 0 -26 -28 -67 -202 -70 -296 -104 -429 -108 -434 -2 -2 -90 14 -195 36
-523 108 -1105 156 -1620 132 -469 -22 -756 -60 -1264 -168 -24 -5 -26 -3 -38
53 -22 101 -140 585 -143 589 -2 1 -9 0 -15 -4z"/>
</g>
</svg>
