<?xml version="1.0" encoding="utf-8"?>

<!DOCTYPE svg PUBLIC "-//W3C//DTD SVG 1.1//EN" "http://www.w3.org/Graphics/SVG/1.1/DTD/svg11.dtd">
<svg version="1.1" xmlns="http://www.w3.org/2000/svg" xmlns:xlink="http://www.w3.org/1999/xlink" x="0px" y="0px" fill="#d8a331" width="20" height="20" viewBox="0 0 1000 1000" enable-background="new 0 0 1000 1000" xml:space="preserve">
<metadata> Svg Vector Icons : http://www.onlinewebfonts.com/icon </metadata>
<g><g transform="translate(0.000000,511.000000) scale(0.100000,-0.100000)"><path d="M4867,4435.8c-56.2-17.9-125.1-58.7-155.8-86.8c-43.4-40.9-89.4-53.6-188.9-53.6c-352.4,0-625.6-301.3-577-635.8c15.3-94.5,28.1-114.9,102.1-145.5c166-68.9,352.3-30.6,536.2,107.2l120,91.9l-17.9-150.7c-40.9-352.3-43.4-365.1-102.1-375.3c-28.1-7.7-219.6-17.9-423.8-25.5c-1414.5-56.2-2688.6-393.2-3130.3-824.7C889,2199.1,809.8,2020.4,820,1869.7c2.5-35.7,2.5-916.6,0-1955.8l-5.1-1892l-171.1-99.6C301.7-2276.8,100-2544.9,100-2800.2c0-227.3,237.5-515.8,574.5-704.7c1427.3-799.2,5221.5-995.8,7588.4-395.8c656.2,168.5,1100.5,367.7,1376.2,620.4c426.4,388.1,324.3,840.1-263,1189.9l-186.4,109.8l-5.1,1894.6c-2.5,1039.2-2.5,1920.1,0,1955.8c2.6,35.7-12.8,125.1-33.2,196.6c-109.8,380.4-750.7,712.4-1761.8,914.1c-480,94.5-1322.6,191.5-1685.2,191.5h-153.2l-68.9,173.6c-38.3,94.5-127.7,260.4-199.1,367.7c-68.9,107.2-127.7,199.2-127.7,206.8c0,5.1,33.2,17.9,74.1,25.5c97,20.4,257.9,160.9,257.9,227.3c0,76.6-176.2,240-293.6,273.2C5061,4481.8,4987,4479.2,4867,4435.8z M5186.2,4229l81.7-40.9l-63.8-35.7c-89.4-51.1-237.5-43.4-306.4,12.8l-61.3,51.1l63.8,25.5C4994.7,4280,5096.8,4275,5186.2,4229z M4568.3,4012c0-171.1-171.1-329.4-354.9-329.4c-61.3,0-79.2,10.2-79.2,51.1c0,173.6,171.1,357.5,334.5,357.5C4563.1,4091.1,4568.3,4086,4568.3,4012z M5216.8,3424.7l120-227.2h-247.6h-247.7l17.9,97c7.7,51.1,15.3,209.4,15.3,349.8l2.6,255.3l109.8-122.6C5048.3,3710.7,5150.4,3552.4,5216.8,3424.7z M5410.8,2776.2c0-5.1-43.4-33.2-99.6-61.3c-53.6-28.1-127.7-86.8-163.4-130.2c-94.5-109.8-219.6-107.2-349.8,10.2c-51.1,46-109.8,89.4-130.2,97c-30.6,10.2-30.6,17.9,0,53.6c28.1,35.8,89.4,43.4,388.1,43.4C5252.5,2788.9,5410.8,2783.8,5410.8,2776.2z M4404.8,2740.4c-7.7-10.2-51.1-28.1-97-38.3c-48.5-10.2-122.6-61.3-186.4-127.7c-104.7-107.2-114.9-112.3-372.8-155.8c-472.4-79.2-712.4-178.7-783.9-326.8c-102.1-209.4,234.9-393.2,903.9-495.3c446.8-66.4,1833.3-66.4,2269.9,2.6c674.1,104.7,1003.4,283.4,901.3,492.8c-68.9,145.5-316.6,250.2-773.6,326.8c-125.1,20.4-234.9,51.1-237.4,66.4c-20.4,58.7-145.5,181.3-232.4,227.2l-91.9,48.5l104.7,2.6c163.4,0,857.9-71.5,1202.6-127.7c944.7-153.2,1682.6-431.5,1756.7-663.9c23-74-61.3-196.6-191.5-280.9c-431.5-278.3-1317.5-485.1-2502.2-589.8c-444.3-38.3-1669.9-38.3-2144.8,0c-1391.5,114.9-2492,426.4-2668.2,753.2c-43.4,81.7-43.4,91.9-5.1,150.6c199.2,303.8,1182.2,594.9,2420.5,717.5C4083.1,2763.4,4422.7,2771.1,4404.8,2740.4z M5724.9,2528.5c76.6-40.8,145.5-178.7,145.5-296.2c0-86.8-15.3-125.1-86.8-204.3c-81.7-86.8-97-94.5-232.3-94.5c-135.3,0-150.6,7.7-232.3,94.5C5066.1,2306.4,5387.9,2704.7,5724.9,2528.5z M4678,2431.5c166-186.4,35.8-459.6-227.2-459.6c-122.6,0-265.5,135.3-265.5,252.8C4185.3,2497.9,4499.3,2630.6,4678,2431.5z M5027.9,2227.2c0-158.3,109.8-339.6,263-434.1l71.5-43.4l-160.9-17.9c-206.8-20.4-1031.5,25.5-1355.8,74c-291.1,43.4-536.2,104.7-638.3,155.8c-99.6,53.6-58.7,97,150.6,160.8c137.9,43.4,536.2,130.2,597.5,130.2c10.2,0,28.1-43.4,38.3-94.5c74-413.6,640.9-533.6,870.7-186.4c38.3,56.2,74,153.2,81.7,217C4958.9,2321.7,5027.9,2352.3,5027.9,2227.2z M6639,2125.1c94.5-28.1,183.8-68.9,201.7-89.4c28.1-33.2,15.3-46-79.1-86.8c-132.8-58.7-549-145.5-801.7-168.5l-178.7-17.9l71.5,51.1c99.6,68.9,194.1,204.3,211.9,308.9c10.2,51.1,20.4,99.6,25.5,107.2C6102.8,2252.7,6427.1,2188.9,6639,2125.1z M1892.4,1042.5c1815.4-594.9,5321-497.9,6687,186.4l201.7,102.1V307.1c0-1174.5,5.1-1138.8-232.3-1360.9c-194.1-181.3-319.2-229.8-610.3-229.8c-214.5,0-260.4,7.7-385.5,71.5c-171.1,81.7-362.6,278.3-436.6,444.3c-30.6,71.5-58.7,206.8-68.9,334.5c-15.3,183.8-25.5,222.1-76.6,263c-76.6,61.3-183.8,61.3-260.4,0c-51.1-40.9-61.3-79.2-76.6-263c-10.2-120-35.8-275.8-58.7-344.7c-127.7-388.1-436.6-600-714.9-492.8c-127.7,48.5-278.3,211.9-362.5,398.3C5416-691.2,5380.2-658,5270.4-658c-102.1,0-140.4-28.1-204.3-150.6c-81.7-160.9-242.6-319.2-416.2-403.4c-127.7-63.8-173.6-71.5-388.1-71.5c-227.2,0-252.8,5.1-403.4,86.8c-298.7,163.4-457,411.1-487.7,773.6c-20.4,227.3-68.9,301.3-206.8,301.3s-186.4-74-206.8-301.3c-30.6-370.2-199.2-628.1-503-776.2c-150.7-74-194.1-84.3-388.1-84.3c-181.3,0-240,10.2-357.5,66.4c-186.4,86.8-319.2,204.3-411.1,365.1l-74,130.2V304.6V1331l201.7-102.1C1535,1175.2,1746.9,1091,1892.4,1042.5z M3370.8-1339.7c462.1-464.7,1258.8-482.6,1756.7-40.8l114.9,102.1l132.8-137.9c196.6-201.7,372.8-275.7,648.5-275.7c176.2,0,240,12.8,339.6,61.3c153.2,74,372.8,273.2,439.2,393.2l46,89.4l158.3-158.3c176.2-181.3,436.6-324.3,669-375.4c311.5-63.8,686.8,7.7,960,181.3c66.4,40.9,127.7,76.6,132.8,76.6c7.7,0,12.8-191.5,12.8-426.4v-423.8L8668.8-2384c-237.5-227.2-1041.7-459.6-2006.9-582.1c-827.3-104.7-2277.5-117.5-3086.9-28.1c-1090.3,120-1981.4,365.1-2241.8,615.4l-109.8,104.7v423.8c0,234.9,5.1,426.4,10.2,426.4c7.7,0,66.4-35.7,130.2-79.1c176.2-117.5,380.4-181.3,628.1-196.6c413.6-20.4,714.9,97,1006,393.2c158.3,160.8,181.3,178.7,211.9,140.4C3225.2-1189.1,3299.3-1265.7,3370.8-1339.7z M950.2-2552.6c199.2-273.2,801.7-533.6,1600.9-694.5c1440.1-291.1,3462.3-291.1,4902.3,0c822.2,166,1401.8,421.3,1611.1,712.4l81.7,112.3l74.1-43.4c114.9-66.4,275.8-252.8,275.8-316.6c0-357.5-1039.2-750.7-2476.7-937.1c-707.3-91.9-1118.3-114.9-2017.1-114.9c-898.8,0-1309.8,23-2017.1,114.9C1547.7-3533,508.5-3142.4,508.5-2784.9c0,30.6,30.6,91.9,68.9,137.9c89.4,104.7,268.1,234.9,288.5,209.4C873.6-2450.4,911.9-2501.5,950.2-2552.6z"/></g></g>
</svg>