<?xml version="1.0" encoding="utf-8"?>

<!DOCTYPE svg PUBLIC "-//W3C//DTD SVG 1.1//EN" "http://www.w3.org/Graphics/SVG/1.1/DTD/svg11.dtd">
<svg version="1.1" xmlns="http://www.w3.org/2000/svg" xmlns:xlink="http://www.w3.org/1999/xlink" x="0px" y="0px" fill="#d8a331" width="18" height="18" viewBox="0 0 1000 600" enable-background="new 0 0 1000 1000" xml:space="preserve">
<metadata> Svg Vector Icons : http://www.onlinewebfonts.com/icon </metadata>
<g><path d="M794,826.7v-65.3H10v65.3H794z M794,238.7v-65.3H10V304c0,216.4,175.6,392,392,392c82.6,0,159.1-25.7,222.3-69.3c12.7,2.6,25.7,4,39.1,4H794c108.3,0,196-87.7,196-196C990,326.4,902.3,238.7,794,238.7z M794,565.3H693.6C755.8,495.9,794,404.5,794,304c72.1,0,130.7,58.5,130.7,130.7C924.7,506.8,866.1,565.3,794,565.3z"/></g>
</svg>