<?xml version="1.0" encoding="utf-8"?>
<!DOCTYPE svg PUBLIC "-//W3C//DTD SVG 1.1//EN" "http://www.w3.org/Graphics/SVG/1.1/DTD/svg11.dtd">
<svg version="1.1" xmlns="http://www.w3.org/2000/svg" xmlns:xlink="http://www.w3.org/1999/xlink" x="0px" y="0px" fill="#d8a331" width="18" height="18" viewBox="0 0 1000 1000" enable-background="new 0 0 1000 1000" xml:space="preserve">
<metadata> Svg Vector Icons : http://www.onlinewebfonts.com/icon </metadata>
<g><g transform="translate(0.000000,511.000000) scale(0.100000,-0.100000)"><path d="M4999,4708.8c-284.3-116.7-543.1-358.6-668.3-619.5c-182.5-386.1-182.5-835.9,2.1-1444.8c93.3-314,203.7-562.2,420.1-950.5c256.7-462.5,303.4-619.5,235.5-808.3c-17-44.6-25.5-87-21.2-91.2c4.2-4.2,67.9,38.2,142.1,93.3c392.5,299.2,642.9,674.7,693.8,1039.6c53,369.2-93.4,708.6-532.5,1226.3c-422.2,498.6-547.4,693.8-547.4,857.1c0,195.2,127.3,462.5,303.4,642.9c55.2,57.3,99.7,104,95.5,104C5117.8,4757.6,5062.7,4734.3,4999,4708.8z"/><path d="M3579.6,3599.2c-61.5-31.8-165.5-106.1-233.4-169.7c-316.1-292.8-377.7-678.9-203.7-1296.3c33.9-118.8,131.5-341.6,269.5-617.4c184.6-362.8,218.5-445.5,218.5-530.4c0-55.2-8.5-120.9-17-146.4c-27.6-74.3,4.2-59.4,157,65.8c267.3,222.8,422.2,485.8,439.2,744.7c17,280.1-74.3,475.2-413.7,882.6c-316.1,377.6-356.4,445.5-354.3,600.4c0,148.5,65.8,299.2,193.1,437.1c40.3,46.7,70,84.9,65.8,84.9C3696.3,3654.4,3641.2,3628.9,3579.6,3599.2z"/><path d="M1046.4,96.4c-180.3-804.1-89.1-1614.6,261-2329.6c265.2-541,655.6-997.2,1154.2-1349.3l146.4-104H1468.6c-1256,0-1247.5,0-1328.1-131.5c-50.9-82.7-53-165.5-10.6-250.4c65.8-125.2,80.6-127.3,944.1-127.3h785v-97.6c0-82.8,10.6-108.2,72.1-169.7c70-70,76.4-72.1,250.4-74.3c95.5,0,1194.5,0,2439.9,0c1659.1-2.1,2274.4,4.2,2308.3,23.3c65.8,36.1,127.3,148.5,127.3,239.7v78.5h785c876.2,0,878.4,0,944.1,140c40.3,84.9,31.8,174-23.3,258.8c-72.1,108.2-89.1,110.3-1317.5,112.4c-1079.9,0-1139.3,2.1-1088.4,36.1c345.8,235.5,687.4,555.9,891.1,835.9l116.7,161.2l647.1,6.4l647.1,8.5l161.2,70c237.6,101.8,475.3,267.3,666.2,460.4c288.5,292.8,411.6,558,413.7,882.6C9902.1-521,9380.2,73.1,8675.8,174.9c-78.5,10.6-299.1,21.2-488,21.2c-216.4,0-345.8,8.5-345.8,21.2c0,14.9-1141.4,21.2-3381.9,21.2H1078.2L1046.4,96.4z M8690.7-408.6c203.7-106.1,458.3-354.3,536.8-521.9c31.8-65.8,61.5-171.9,70-235.5c38.2-322.5-227-695.9-642.9-901.7c-167.6-82.7-195.2-84.9-732-74.3l-269.4,4.2l40.3,93.4c171.8,403.1,258.8,857.1,258.8,1366.3v369.2l290.7-8.5l288.5-6.4L8690.7-408.6z"/></g></g>
</svg>