<?xml version="1.0" encoding="utf-8"?>
<!-- Svg Vector Icons : http://www.onlinewebfonts.com/icon -->
<!DOCTYPE svg PUBLIC "-//W3C//DTD SVG 1.1//EN" "http://www.w3.org/Graphics/SVG/1.1/DTD/svg11.dtd">
<svg version="1.1" xmlns="http://www.w3.org/2000/svg" xmlns:xlink="http://www.w3.org/1999/xlink" x="0px" y="0px" fill="#d8a331" width="18" height="18" viewBox="0 0 1000 1000" enable-background="new 0 0 1000 1000" xml:space="preserve">
<metadata> Svg Vector Icons : http://www.onlinewebfonts.com/icon </metadata>
<g><g transform="translate(0.000000,512.000000) scale(0.100000,-0.100000)"><path d="M7407.9,4870.7c-677.7-107.2-941.9-155.1-953.4-174.2c-15.3-28.7-781.1-2787.4-781.1-2818c0-7.7,72.7-15.3,162.7-15.3c90,0,162.7,5.7,162.7,11.5c0,11.5,612.6,2232.2,681.5,2467.7l26.8,97.6l853.8,132.1c562.9,88.1,857.7,141.7,863.4,157c15.3,42.1-34.5,292.9-57.4,291C8353.6,5018.1,7922.9,4951.1,7407.9,4870.7z"/><path d="M2836.2,4849.6c-474.8-57.4-884.5-340.8-1106.5-769.6c-109.1-206.8-155.1-400.1-157-647.1c-1.9-247,36.4-409.7,147.4-641.3c134-279.5,381-526.5,650.9-652.8c201-93.8,216.3-95.7,239.3-36.4c9.6,26.8,19.1,61.3,19.1,72.7c0,13.4-76.6,59.4-168.5,103.4c-269.9,128.3-465.2,321.6-599.2,589.6c-310.1,627.9-49.8,1382.2,585.8,1696.2c528.4,260.4,1142.9,126.4,1537.3-336.9c162.7-189.5,291-539.9,291-788.8c0-107.2-34.5-335-53.6-354.2c-9.6-9.6-717.9,88.1-1133.3,157c-5.7,0,5.7,9.6,24.9,21.1c49.8,28.7,93.8,141.7,78.5,204.8c-7.7,28.7-34.5,74.7-59.3,101.5c-128.3,139.8-350.3,40.2-350.3-157c0-42.1,19.2-78.5,67-126.4c59.3-59.3,76.6-67,143.6-59.3c42.1,3.8,76.6,1.9,76.6-3.8c0-5.7-90-222.1-201-478.6c-225.9-524.6-229.7-536-204.9-536c11.5,0,111,218.2,224,484.4c112.9,264.2,210.6,488.2,218.3,493.9c5.7,7.7,256.5-24.9,557.1-68.9c300.6-45.9,547.5-76.6,551.3-67c3.8,7.7,32.5,7.7,67-1.9c34.5-9.6,70.8-17.2,82.3-17.2c32.5,0,65.1,197.2,65.1,402C4429.1,4282.9,3678.6,4949.2,2836.2,4849.6z M3058.3,3578.4c168.5-70.8,107.2-317.8-76.6-317.8c-172.3,0-220.2,260.4-57.4,325.4C2979.8,3609.1,2985.6,3609.1,3058.3,3578.4z"/><path d="M2717.5,4476.3c-354.2-97.6-639.4-375.2-752.4-733.2c-44-141.7-47.9-180-40.2-363.7c7.7-158.9,21-233.6,61.3-336.9c63.2-166.6,197.2-354.2,323.5-453.7c99.6-80.4,298.7-189.5,342.7-189.5c15.3,0,97.6,166.6,191.4,388.6l164.6,386.7l-68.9,11.5c-103.4,19.1-195.3,126.4-195.3,231.7c0,45.9,15.3,107.2,36.4,141.7c38.3,63.2,143.6,122.5,216.3,122.5c101.5,0,245-141.7,245-245c0-23-11.5-70.8-26.8-107.2l-26.8-63.2l421.2-61.3c302.5-44,428.8-55.5,442.2-42.1c11.5,11.5,24.9,101.5,28.7,199.1c21.1,511.2-273.8,945.7-748.5,1095.1C3159.8,4512.7,2880.3,4520.3,2717.5,4476.3z"/><path d="M3127.2-874.6V-4780h2230.3h2230.3v3905.4v3905.5h-162.7h-162.7V2447v-583.9l-635.6-3.8l-633.7-5.7l-15.3-47.9c-7.6-26.8-373.3-1347.8-811.7-2938.7c-440.3-1589-802.1-2894.6-806-2898.5c-7.7-7.6-243.1,55.5-275.7,74.7c-19.1,11.5,162.7,693,773.4,2904.2c438.4,1587.1,796.4,2892.7,796.4,2902.3c0,7.7-499.7,13.4-1110.4,13.4H3433.5V2447v583.9h-153.2h-153.2V-874.6z M4549.7,1554.9c90-24.9,208.7-128.3,252.7-220.2c67-141.7,24.9-356.1-90-459.5c-160.8-147.4-409.7-145.5-559,3.8c-130.2,130.2-158.9,300.6-76.6,463.3C4166.8,1524.2,4356.3,1608.5,4549.7,1554.9z M7107.4-539.5c30.6-15.3,76.6-53.6,105.3-86.2c44-53.6,49.8-78.5,49.8-195.3c0-220.2-97.6-327.4-296.7-327.4c-336.9,0-446.1,423.1-155.1,601.1C6883.4-503.2,7030.8-499.3,7107.4-539.5z M6289.9-1919.9c237.4-166.5,237.4-501.6,0-668.1c-74.7-51.7-99.6-57.4-224-57.4c-124.4,0-149.3,5.7-224,57.4c-268,189.5-224,587.7,80.4,716c26.8,11.5,101.5,19.1,166.6,15.3C6186.5-1860.5,6224.8-1873.9,6289.9-1919.9z"/><path d="M4337.2,1296.4c-63.2-44-88.1-116.8-61.3-181.9c42.1-99.6,199.1-126.4,277.6-45.9c61.3,59.3,61.3,126.4-1.9,199.1C4494.1,1336.6,4408,1346.2,4337.2,1296.4z"/><path d="M6018-2094.1c-68.9-26.8-114.9-90-114.9-158.9c0-95.7,55.5-143.6,162.7-143.6c105.3,0,162.7,47.9,162.7,135.9C6228.6-2153.4,6108-2059.6,6018-2094.1z"/></g></g>
</svg>