<?xml version="1.0" encoding="utf-8"?>
<svg version="1.1" xmlns="http://www.w3.org/2000/svg" xmlns:xlink="http://www.w3.org/1999/xlink" x="0px" y="0px" fill="#453432" width="15" height="15" viewBox="0 0 1000 1000" enable-background="new 0 0 1000 1000" xml:space="preserve">
<g><g transform="translate(0.000000,511.000000) scale(0.100000,-0.100000)"><path d="M4581.7,4985.5c-1131-130.2-2106.2-796.5-2463.7-1685l-74-186.4l-201.7-33.2C747,2899.7,27.1,2016.3,239,1110C410,392.6,1137.6-169,1998-245.6c574.4-51.1,1166.7,99.6,1577.8,398.3l117.4,86.8l219.6-61.3C4341.7,53.1,4551,25,5013.1,25c457,0,709.7,38.3,1108,163.4l178.7,56.2l127.6-91.9c155.7-114.9,497.8-273.2,707.2-331.9c86.8-23,263-51.1,395.7-63.8c903.8-86.8,1774.4,339.5,2116.5,1034c482.5,980.4-237.4,2083.3-1488.4,2290.1l-201.7,33.2l-66.4,165.9C7418.1,4439.2,6029.2,5154,4581.7,4985.5z M4275.3,3772.8c250.2-120,303.8-439.1,107.2-640.8c-148.1-150.6-372.7-163.4-543.8-28.1c-145.5,112.3-183.8,357.4-81.7,508C3882.1,3800.9,4086.4,3862.2,4275.3,3772.8z M6090.5,3047.8c362.5-163.4,222.1-714.8-173.6-681.7c-155.8,12.8-263,91.9-316.6,232.3c-53.6,137.9-23,278.3,81.7,377.9C5817.3,3103.9,5924.6,3124.4,6090.5,3047.8z M7563.6,2100.6c35.7-28.1,84.2-86.8,104.7-125.1c107.2-206.8-48.5-459.5-278.3-459.5c-306.4,0-449.3,337-232.3,554c71.5,71.5,102.1,84.2,211.9,84.2C7458.9,2154.2,7515.1,2138.9,7563.6,2100.6z M4620,1947.4c153.2-107.2,166-362.5,25.5-487.6c-150.6-135.3-331.9-125.1-459.5,20.4c-66.4,71.5-79.1,109.8-79.1,211.9C4106.8,1965.3,4392.7,2108.3,4620,1947.4z M2365.6,1801.9c81.7-53.6,132.8-163.4,132.8-285.9c0-81.7-17.9-122.5-84.2-194c-71.5-79.1-104.7-94.4-217-107.2c-127.7-10.2-135.3-7.7-234.9,91.9c-86.8,86.8-102.1,117.4-102.1,206.8C1860.1,1799.3,2133.3,1955.1,2365.6,1801.9z"/><path d="M3621.7-69.5c-556.6-388-1452.7-508-2134.3-293.6c-125.1,40.9-188.9,51.1-188.9,30.6c0-15.3,229.8-998.2,513.2-2185.4c457-1922.4,518.3-2162.4,574.4-2216l63.8-56.2h2550.5h2550.5l63.8,56.2c56.1,53.6,120,296.1,574.4,2218.6c283.4,1187.2,513.1,2172.6,513.1,2190.5c0,20.4-12.8,23-43.4,7.7c-25.5-12.8-155.7-51.1-288.5-84.3c-319.1-76.6-855.3-84.2-1161.6-12.8c-283.4,63.8-554,173.6-771,306.4L6253.9,4.6l-209.3-61.3C5365.4-253.3,4387.6-232.9,3774.9-5.7C3754.5,2,3685.6-26.1,3621.7-69.5z M3629.4-809.9c30.6-15.3,71.5-48.5,89.4-74c15.3-28.1,79.1-625.5,145.5-1381.2c91.9-1049.3,109.8-1350.5,89.4-1404.1c-35.7-81.7-150.6-137.9-242.5-114.9c-132.8,33.2-137.9,56.1-260.4,1468c-63.8,727.6-109.8,1355.7-99.6,1391.4c15.3,61.3,117.4,140.4,186.4,143C3555.4-781.8,3596.2-794.5,3629.4-809.9z M5140.8-845.6l63.8-61.3V-2288v-1381.2l-63.8-61.3c-81.7-84.2-199.1-84.2-280.8,0l-63.8,61.3V-2288v1381.2l63.8,61.3c38.3,40.8,91.9,63.8,140.4,63.8C5048.9-781.8,5102.5-804.7,5140.8-845.6z M6557.7-820.1c43.4-23,84.2-68.9,91.9-104.7c10.2-35.7-35.7-663.8-99.6-1393.9c-89.3-1005.9-127.6-1342.9-158.3-1388.8c-48.5-76.6-145.5-102.1-240-61.3c-145.5,58.7-145.5,28.1-17.9,1493.5c68.9,755.7,132.7,1365.9,150.6,1391.4c30.7,51.1,109.8,97,166,99.6C6468.3-781.8,6516.9-799.6,6557.7-820.1z"/></g></g>
</svg>