<?xml version="1.0" encoding="utf-8"?>

<!DOCTYPE svg PUBLIC "-//W3C//DTD SVG 1.1//EN" "http://www.w3.org/Graphics/SVG/1.1/DTD/svg11.dtd">
<svg version="1.1" xmlns="http://www.w3.org/2000/svg" xmlns:xlink="http://www.w3.org/1999/xlink" x="0px" y="0px" fill="#feffe1" width="18" height="18"  viewBox="0 0 1000 850" enable-background="new 0 0 1000 1000" xml:space="preserve">
<metadata> Svg Vector Icons : http://www.onlinewebfonts.com/icon </metadata>
<g><g transform="translate(0.000000,511.000000) scale(0.100000,-0.100000)"><path d="M4542.7,4846.7c-73-86.5-1101.1-1335.5-2286.7-2774.8L100-547.2l305.5-2115.6c169.1-1162.6,309.4-2117.6,313.2-2121.4c3.8-5.7,5468.8,1750.5,8725.8,2803.6l455.4,148l-3.8,2277.1l-5.8,2279L7402,3812.9c-1368.2,597.6-2542.2,1110.7-2607.6,1139.5l-121.1,51.9L4542.7,4846.7z M7090.7,3240.2c910.8-513.1,1650.6-935.8,1644.9-941.6c-11.5-13.5-7701.6-2475-7709.3-2469.2c-3.8,1.9,958.9,995.4,2138.7,2206l2148.3,2200.2l61.5-32.7C5407.4,4185.7,6179.8,3751.4,7090.7,3240.2z M9035.3,1370.6c0-3.8,21.1-130.7,48-284.4c26.9-153.7,48-303.6,48-334.4c0-61.5-167.2-368.9-299.8-551.5C8706.7,31.2,8472.3-207,8330.1-308.9c-474.6-342-1010.7-368.9-1650.6-84.6c-276.7,123-455.4,169.1-716.8,184.5C5455.4-178.2,4832.8-324.3,4241-612.5c-324.7-159.5-549.6-301.7-816.7-516.9c-201.8-163.3-401.6-274.8-605.3-340.1c-192.2-61.5-609.1-74.9-868.5-28.8c-199.8,36.5-501.5,126.8-682.2,207.5l-111.4,50v303.6v305.5l1869.7,474.6c1026.1,263.3,2794,712.9,3923.8,1003C9021.8,1374.4,9035.3,1378.3,9035.3,1370.6z M9411.9-954.5c46.1-288.2,78.8-526.5,75-530.3c-3.8-3.9-1869.7-499.6-4144.8-1101.1c-2275.1-601.5-4154.4-1099.1-4173.6-1104.9c-34.6-11.5-36.5,7.7-21.1,705.2c7.7,395.9,15.4,720.6,19.2,724.5c3.8,3.8,103.8-25,222.9-61.5c386.2-119.1,503.4-136.4,930-136.4c430.4,0,572.6,25,849.3,153.7c199.8,92.2,294,163.3,568.8,426.6C4429.3-1215.8,4855.9-920,5370.9-748.9c384.3,126.8,712.9,124.9,1066.5-11.5c345.9-132.6,576.5-205.6,809-261.3c201.8-46.1,259.4-51.9,588-51.9c320.9-1.9,384.3,3.8,528.4,42.3c332.4,90.3,674.5,295.9,876.2,528.4c40.4,48,78.8,82.6,82.6,78.8C9325.4-428,9365.8-666.3,9411.9-954.5z"/></g></g>
</svg>