<?xml version="1.0" standalone="no"?>
<!DOCTYPE svg PUBLIC "-//W3C//DTD SVG 20010904//EN"
 "http://www.w3.org/TR/2001/REC-SVG-20010904/DTD/svg10.dtd">
<svg version="1.0" xmlns="http://www.w3.org/2000/svg"
 width="435.000000pt" height="573.000000pt" viewBox="0 0 435.000000 573.000000"
 preserveAspectRatio="xMidYMid meet">

<g transform="translate(0.000000,573.000000) scale(0.100000,-0.100000)"
fill="#453432" stroke="none">
<path d="M2217 5633 c-12 -171 -11 -183 17 -183 26 0 36 21 36 78 0 25 4 32
19 32 25 0 44 -24 56 -74 10 -37 14 -41 44 -44 27 -3 32 0 28 12 -3 8 -11 34
-17 57 -6 23 -22 52 -36 66 l-24 24 45 53 c25 29 45 56 45 60 0 3 -15 6 -32 6
-28 0 -39 -8 -73 -56 l-40 -56 -3 61 c-3 59 -4 61 -31 61 l-28 0 -6 -97z"/>
<path d="M1944 5693 c2 -10 8 -63 11 -118 9 -139 7 -135 66 -135 92 0 139 34
139 100 0 49 -38 80 -98 80 l-50 0 -6 45 c-7 42 -9 45 -37 45 -24 0 -29 -4
-25 -17z m140 -129 c32 -31 16 -70 -31 -80 -30 -6 -31 -5 -35 37 -3 24 -3 47
-1 52 7 13 51 7 67 -9z"/>
<path d="M1775 5676 c-106 -46 -118 -198 -22 -256 36 -23 78 -25 128 -9 46 16
53 23 40 48 -11 20 -14 20 -41 6 -40 -21 -64 -19 -95 8 -20 16 -28 35 -32 69
-5 40 -2 50 20 72 18 18 37 26 62 26 31 0 35 3 35 25 0 22 -4 25 -32 25 -18
-1 -47 -7 -63 -14z"/>
<path d="M2507 5567 c-37 -63 -67 -119 -67 -124 0 -6 11 -13 25 -15 20 -4 29
1 46 28 11 18 25 31 32 29 7 -2 24 -6 39 -9 22 -5 27 -12 30 -43 3 -31 8 -38
32 -44 l29 -8 -8 142 c-4 78 -8 144 -10 145 -2 2 -21 6 -43 9 l-39 5 -66 -115z
m102 -9 c1 -38 -8 -45 -42 -32 -13 5 -12 13 6 54 24 52 35 46 36 -22z"/>
<path d="M1520 5593 c-8 -3 -34 -14 -57 -25 l-42 -19 18 -47 c10 -26 33 -82
51 -125 31 -75 34 -78 59 -72 14 4 27 8 29 9 1 2 -6 24 -17 49 -19 45 -19 46
-1 52 34 11 80 62 80 89 0 68 -57 111 -120 89z m48 -55 c20 -20 14 -55 -14
-73 -30 -19 -27 -21 -48 29 -20 47 -20 44 2 49 32 8 48 7 60 -5z"/>
<path d="M1270 5470 c-36 -22 -64 -44 -63 -48 2 -10 113 -203 125 -219 7 -8
29 0 81 30 40 22 73 41 75 43 2 1 -2 11 -9 23 -13 20 -13 20 -62 -7 -48 -26
-49 -26 -63 -7 -22 30 -17 43 26 65 43 22 48 31 25 50 -11 9 -22 7 -55 -11
-39 -22 -40 -22 -55 -3 -17 23 -15 36 11 49 64 34 65 35 54 55 -6 11 -14 20
-18 20 -4 0 -36 -18 -72 -40z"/>
<path d="M2807 5471 c-3 -14 9 -25 51 -45 49 -24 57 -26 70 -12 13 13 9 17
-29 36 -79 39 -87 41 -92 21z"/>
<path d="M3075 5418 c-116 -181 -111 -169 -75 -188 21 -11 19 -13 114 138 l27
43 30 -18 c61 -36 61 -37 -19 -157 l-46 -69 23 -18 c24 -19 24 -19 40 3 36 51
131 202 131 208 0 7 -150 107 -174 116 -6 2 -29 -23 -51 -58z"/>
<path d="M1070 5339 c-91 -69 -91 -70 -75 -93 13 -18 15 -18 41 3 14 11 30 19
34 16 4 -2 27 -30 51 -62 89 -119 83 -113 109 -93 l24 18 -67 88 c-37 49 -67
91 -67 94 0 3 13 14 29 24 24 17 27 23 18 38 -7 10 -16 18 -22 18 -5 -1 -39
-23 -75 -51z"/>
<path d="M3344 5278 c-49 -54 -144 -172 -144 -178 0 -4 29 -30 65 -60 62 -49
67 -52 79 -34 12 16 10 22 -25 52 -21 19 -39 37 -39 41 0 3 9 17 19 30 l18 23
37 -32 c35 -31 38 -32 54 -16 16 16 15 19 -23 51 l-40 34 22 22 21 22 42 -33
c38 -30 43 -32 58 -16 10 10 12 19 7 24 -6 5 -35 29 -66 55 l-56 47 -29 -32z"/>
<path d="M905 5200 c-18 -20 -18 -23 8 -113 14 -50 29 -101 32 -112 4 -11 -24
13 -63 53 -65 67 -72 72 -91 60 -12 -7 -20 -16 -19 -19 2 -4 44 -50 94 -103
l92 -97 26 23 26 23 -16 60 c-8 33 -22 79 -30 103 -8 23 -14 44 -14 46 0 2 31
-28 68 -66 67 -69 68 -69 86 -49 19 21 18 22 -74 116 -52 52 -97 95 -100 95
-4 0 -15 -9 -25 -20z"/>
<path d="M3455 5054 l-99 -94 22 -22 22 -22 38 37 c44 43 48 44 62 17 9 -16 6
-31 -14 -70 -24 -48 -24 -52 -8 -70 9 -11 20 -20 25 -20 15 0 59 111 55 140
l-4 28 78 7 78 6 -24 26 c-24 26 -26 26 -92 15 -38 -6 -70 -9 -73 -7 -2 3 12
20 33 38 41 38 43 47 19 69 -17 15 -26 9 -118 -78z"/>
<path d="M2015 5116 c-127 -26 -267 -91 -385 -178 -80 -59 -226 -212 -292
-304 -47 -65 -178 -287 -178 -300 0 -2 -14 -33 -30 -69 -71 -155 -139 -395
-182 -642 -20 -115 -22 -162 -22 -453 0 -292 2 -338 22 -455 117 -670 399
-1156 807 -1387 394 -224 859 -115 1188 280 194 233 325 498 415 842 117 445
119 972 6 1425 -27 105 -82 283 -94 300 -3 6 -15 33 -25 60 -30 84 -119 249
-191 357 -45 67 -108 143 -184 219 -183 183 -341 272 -544 308 -78 14 -235 12
-311 -3z m380 -41 c403 -112 749 -536 920 -1128 31 -110 71 -317 87 -452 16
-140 16 -520 -1 -650 -102 -823 -491 -1428 -1012 -1576 -116 -32 -297 -33
-414 -1 -430 119 -793 584 -949 1217 -61 247 -71 344 -70 690 0 304 1 328 27
472 88 491 265 878 521 1137 149 150 321 256 471 290 39 8 79 18 90 20 43 10
272 -3 330 -19z"/>
<path d="M2063 5023 c9 -2 23 -2 30 0 6 3 -1 5 -18 5 -16 0 -22 -2 -12 -5z"/>
<path d="M2273 5023 c9 -2 25 -2 35 0 9 3 1 5 -18 5 -19 0 -27 -2 -17 -5z"/>
<path d="M2008 5013 c7 -3 16 -2 19 1 4 3 -2 6 -13 5 -11 0 -14 -3 -6 -6z"/>
<path d="M2338 5013 c6 -2 18 -2 25 0 6 3 1 5 -13 5 -14 0 -19 -2 -12 -5z"/>
<path d="M1925 4995 c-39 -17 -21 -18 25 0 19 7 28 14 20 14 -8 0 -28 -6 -45
-14z"/>
<path d="M2410 4995 c46 -18 64 -17 25 0 -16 8 -37 14 -45 14 -8 0 1 -7 20
-14z"/>
<path d="M2501 4967 c15 -13 138 -73 133 -66 -6 10 -118 69 -130 69 -4 0 -5
-2 -3 -3z"/>
<path d="M1804 4944 c-18 -14 -18 -14 6 -3 31 14 36 19 24 19 -6 0 -19 -7 -30
-16z"/>
<path d="M1708 4890 c-25 -16 -49 -34 -53 -40 -6 -9 77 42 100 62 18 16 0 7
-47 -22z"/>
<path d="M2692 4858 c14 -12 46 -38 70 -57 31 -25 37 -27 20 -9 -13 14 -44 40
-70 58 -26 17 -35 21 -20 8z"/>
<path d="M1554 4768 c-41 -39 -94 -95 -116 -122 -31 -40 -27 -37 20 14 33 36
88 91 123 123 35 31 60 57 56 57 -4 0 -41 -32 -83 -72z"/>
<path d="M2811 4764 c2 -6 40 -49 83 -95 44 -46 73 -74 64 -62 -19 30 -152
171 -147 157z"/>
<path d="M1368 4558 c-29 -39 -41 -58 -35 -58 2 0 18 20 36 45 37 51 36 62 -1
13z"/>
<path d="M2970 4576 c0 -2 8 -10 18 -17 15 -13 16 -12 3 4 -13 16 -21 21 -21
13z"/>
<path d="M3035 4486 c10 -14 19 -26 22 -26 7 0 -17 39 -28 46 -6 3 -3 -5 6
-20z"/>
<path d="M1305 4464 c-9 -15 -12 -23 -6 -20 11 7 35 46 28 46 -3 0 -12 -12
-22 -26z"/>
<path d="M3095 4385 c21 -38 43 -74 48 -80 6 -5 -7 22 -27 60 -21 39 -43 75
-48 80 -6 6 6 -21 27 -60z"/>
<path d="M1260 4390 c-6 -11 -8 -20 -6 -20 3 0 10 9 16 20 6 11 8 20 6 20 -3
0 -10 -9 -16 -20z"/>
<path d="M1217 4305 c-9 -19 -15 -35 -12 -35 7 0 37 61 33 66 -3 2 -12 -12
-21 -31z"/>
<path d="M3151 4285 c0 -5 8 -26 19 -45 11 -19 19 -30 19 -25 0 6 -8 26 -19
45 -11 19 -19 31 -19 25z"/>
<path d="M2198 4253 c7 -3 16 -2 19 1 4 3 -2 6 -13 5 -11 0 -14 -3 -6 -6z"/>
<path d="M1172 4215 c-17 -37 -14 -45 4 -12 9 16 14 31 11 33 -2 2 -9 -7 -15
-21z"/>
<path d="M1739 4223 c-13 -16 -12 -17 4 -4 9 7 17 15 17 17 0 8 -8 3 -21 -13z"/>
<path d="M2003 4216 c-28 -12 -55 -25 -59 -29 -15 -14 18 -6 59 15 23 11 53
24 67 29 20 6 21 7 5 7 -11 0 -43 -10 -72 -22z"/>
<path d="M2370 4201 c0 -6 4 -13 10 -16 6 -3 7 1 4 9 -7 18 -14 21 -14 7z"/>
<path d="M3190 4195 c0 -5 5 -17 10 -25 5 -8 10 -10 10 -5 0 6 -5 17 -10 25
-5 8 -10 11 -10 5z"/>
<path d="M2416 4172 c5 -4 25 -28 43 -53 34 -48 36 -59 47 -217 4 -51 10 -94
13 -96 3 -2 4 15 3 39 -3 36 -1 43 17 48 20 5 20 7 6 40 -13 32 -13 37 5 60
25 32 25 34 -8 83 -36 53 -94 104 -118 104 -11 0 -15 -3 -8 -8z"/>
<path d="M1146 4155 c-9 -26 -7 -32 5 -12 6 10 9 21 6 23 -2 3 -7 -2 -11 -11z"/>
<path d="M3211 4145 c0 -5 6 -21 14 -35 8 -14 14 -20 14 -15 0 6 -6 21 -14 35
-8 14 -14 21 -14 15z"/>
<path d="M1881 4093 c-23 -27 -41 -55 -41 -64 0 -8 -11 -30 -25 -48 -13 -19
-27 -55 -31 -80 -3 -25 -12 -56 -20 -67 -9 -15 -12 -45 -9 -97 5 -87 -6 -135
-38 -160 -14 -12 -16 -17 -5 -14 9 3 24 0 34 -7 15 -11 16 -23 10 -80 -4 -37
-12 -76 -18 -86 -9 -14 -9 -25 0 -45 7 -14 12 -35 12 -45 0 -11 7 -20 15 -20
11 0 15 -12 15 -46 0 -38 -3 -45 -16 -40 -9 3 -20 6 -25 6 -12 0 -56 72 -62
101 -2 13 -3 7 -2 -15 4 -46 68 -120 98 -112 9 2 17 0 17 -5 0 -5 28 -71 62
-145 43 -94 70 -141 90 -155 30 -22 29 -23 33 41 1 19 11 64 21 100 22 74 36
85 129 97 l60 8 -67 3 c-43 2 -79 -2 -103 -13 -40 -16 -76 -20 -59 -7 5 4 35
19 67 31 50 20 71 23 130 18 70 -5 70 -3 -1 24 -24 9 -32 17 -29 30 4 14 -2
17 -30 17 -33 0 -34 -1 -13 -11 33 -17 26 -31 -25 -43 -25 -7 -61 -21 -80 -33
-82 -48 -150 -2 -130 88 10 48 55 68 55 25 0 -43 66 13 72 61 2 21 11 34 31
43 15 7 27 19 27 27 0 7 3 22 6 32 3 10 -1 6 -10 -8 -8 -14 -26 -30 -39 -36
-17 -8 -27 -23 -31 -47 -8 -44 -42 -57 -81 -32 -13 9 -31 16 -39 16 -28 0 -67
44 -73 83 -7 47 15 154 33 161 9 3 14 -2 14 -14 0 -24 25 -27 34 -4 4 11 13
14 30 10 19 -5 25 -1 31 17 6 22 7 21 17 -5 12 -34 48 -39 48 -7 0 12 5 19 13
16 6 -2 11 -10 9 -16 -1 -6 4 -11 10 -12 7 0 4 -4 -7 -9 -29 -12 -83 -12 -107
1 -11 6 -22 8 -25 6 -13 -14 50 -31 114 -32 l72 -2 12 52 c16 72 7 101 -37
120 -46 19 -95 19 -141 0 -55 -23 -83 -20 -83 9 0 14 10 32 23 42 l22 16 -25
-6 -26 -5 9 72 c12 101 62 257 97 306 40 55 31 52 -19 -6z m84 -497 c19 -8 35
-18 35 -21 0 -3 -10 -1 -21 6 -13 6 -42 9 -68 6 -46 -5 -46 -5 -16 8 37 17 30
17 70 1z"/>
<path d="M1121 4089 c-6 -18 -9 -34 -7 -36 2 -2 9 10 15 28 6 18 9 34 7 36 -2
2 -9 -10 -15 -28z"/>
<path d="M2831 4073 c7 -12 15 -20 18 -17 3 2 -3 12 -13 22 -17 16 -18 16 -5
-5z"/>
<path d="M3261 4010 c0 -8 6 -28 14 -45 17 -39 18 -21 0 25 -7 19 -14 28 -14
20z"/>
<path d="M1091 3994 c0 -11 3 -14 6 -6 3 7 2 16 -1 19 -3 4 -6 -2 -5 -13z"/>
<path d="M1071 3939 c-6 -18 -11 -37 -10 -43 0 -6 7 7 15 28 8 22 12 41 10 43
-2 2 -9 -10 -15 -28z"/>
<path d="M3301 3874 c0 -11 3 -14 6 -6 3 7 2 16 -1 19 -3 4 -6 -2 -5 -13z"/>
<path d="M1051 3864 c0 -11 3 -14 6 -6 3 7 2 16 -1 19 -3 4 -6 -2 -5 -13z"/>
<path d="M3311 3835 c0 -5 6 -32 13 -60 8 -27 14 -41 14 -30 0 21 -25 107 -27
90z"/>
<path d="M1041 3814 c0 -11 3 -14 6 -6 3 7 2 16 -1 19 -3 4 -6 -2 -5 -13z"/>
<path d="M1026 3754 c-4 -20 -5 -38 -3 -40 3 -3 8 11 11 32 4 20 5 38 3 40 -3
3 -8 -11 -11 -32z"/>
<path d="M1641 3774 c0 -11 3 -14 6 -6 3 7 2 16 -1 19 -3 4 -6 -2 -5 -13z"/>
<path d="M2258 3713 c6 -2 18 -2 25 0 6 3 1 5 -13 5 -14 0 -19 -2 -12 -5z"/>
<path d="M3342 3700 c0 -14 2 -19 5 -12 2 6 2 18 0 25 -3 6 -5 1 -5 -13z"/>
<path d="M2120 3699 c0 -5 5 -7 10 -4 6 3 10 8 10 11 0 2 -4 4 -10 4 -5 0 -10
-5 -10 -11z"/>
<path d="M2168 3703 c12 -2 30 -2 40 0 9 3 -1 5 -23 4 -22 0 -30 -2 -17 -4z"/>
<path d="M1012 3680 c0 -14 2 -19 5 -12 2 6 2 18 0 25 -3 6 -5 1 -5 -13z"/>
<path d="M2280 3648 c-14 -5 -52 -8 -86 -5 l-61 4 8 -43 c11 -56 22 -77 53
-98 23 -14 32 -15 83 -2 34 8 47 14 33 15 -44 2 -62 30 -38 59 11 13 11 15 -2
8 -8 -4 -6 0 4 8 33 27 97 18 89 -12 -3 -12 6 -20 32 -28 37 -12 45 -5 19 16
-8 8 -19 22 -25 32 -9 16 -7 17 17 8 25 -10 26 -9 13 6 -16 20 -71 44 -96 43
-10 0 -29 -5 -43 -11z"/>
<path d="M2633 3625 c0 -22 2 -30 4 -17 2 12 2 30 0 40 -3 9 -5 -1 -4 -23z"/>
<path d="M3352 3640 c0 -14 2 -19 5 -12 2 6 2 18 0 25 -3 6 -5 1 -5 -13z"/>
<path d="M1002 3620 c0 -14 2 -19 5 -12 2 6 2 18 0 25 -3 6 -5 1 -5 -13z"/>
<path d="M2744 3617 c-6 -7 -13 -24 -17 -37 l-6 -25 17 23 c10 13 21 20 25 16
4 -4 8 -46 8 -93 2 -83 2 -84 9 -31 5 30 8 79 9 108 1 43 -2 52 -16 52 -10 -1
-23 -6 -29 -13z"/>
<path d="M2809 3603 c-13 -16 -12 -17 4 -4 16 13 21 21 13 21 -2 0 -10 -8 -17
-17z"/>
<path d="M1660 3588 c0 -19 2 -20 10 -8 13 19 13 30 0 30 -5 0 -10 -10 -10
-22z"/>
<path d="M2290 3572 c0 -36 5 -40 35 -34 17 3 25 11 25 26 0 17 -2 18 -10 6
-5 -8 -10 -10 -10 -4 0 5 5 15 12 22 9 9 5 12 -20 12 -28 0 -32 -3 -32 -28z"/>
<path d="M3367 3535 c3 -38 7 -72 9 -74 7 -8 3 64 -6 104 -7 31 -7 24 -3 -30z"/>
<path d="M992 3550 c0 -19 2 -27 5 -17 2 9 2 25 0 35 -3 9 -5 1 -5 -18z"/>
<path d="M2680 3500 c-8 -20 -9 -34 -3 -43 11 -13 27 -67 25 -79 -3 -15 10 -8
29 15 19 23 25 62 10 71 -4 3 -11 19 -14 36 -8 38 -31 39 -47 0z"/>
<path d="M1699 3508 c0 -2 -3 -37 -5 -78 -5 -67 -4 -77 15 -94 25 -22 27 -10
6 30 -13 25 -13 31 0 51 20 30 20 93 0 93 -8 0 -15 -1 -16 -2z"/>
<path d="M2641 3484 c0 -11 3 -14 6 -6 3 7 2 16 -1 19 -3 4 -6 -2 -5 -13z"/>
<path d="M983 3455 c0 -22 2 -30 4 -17 2 12 2 30 0 40 -3 9 -5 -1 -4 -23z"/>
<path d="M3383 3405 c0 -27 2 -38 4 -22 2 15 2 37 0 50 -2 12 -4 0 -4 -28z"/>
<path d="M2627 3357 c-6 -49 -5 -72 3 -82 18 -22 35 -18 47 8 10 21 8 23 -11
23 -19 -1 -22 6 -26 59 l-5 60 -8 -68z"/>
<path d="M974 3320 c0 -52 1 -74 3 -47 2 26 2 68 0 95 -2 26 -3 4 -3 -48z"/>
<path d="M2187 3384 c3 -8 9 -14 15 -14 17 0 58 -49 52 -63 -3 -8 12 -29 36
-50 39 -36 70 -48 70 -27 0 6 -4 10 -10 10 -18 0 -11 30 8 32 9 0 -3 4 -28 7
-39 5 -47 10 -62 42 -16 35 -93 95 -81 63z"/>
<path d="M2737 3360 c-9 -11 -13 -20 -8 -20 11 0 35 29 29 35 -2 2 -12 -4 -21
-15z"/>
<path d="M2717 3268 c-49 -64 -64 -69 -93 -33 l-23 29 -11 -29 c-6 -15 -9 -36
-7 -44 3 -9 5 -6 6 8 l1 24 23 -22 c14 -12 31 -19 40 -16 16 7 112 124 106
129 -2 2 -21 -19 -42 -46z"/>
<path d="M3394 3170 c0 -74 1 -105 3 -67 2 37 2 97 0 135 -2 37 -3 6 -3 -68z"/>
<path d="M2160 3265 c-21 -25 -5 -28 31 -6 34 21 34 21 8 21 -15 0 -32 -7 -39
-15z"/>
<path d="M2020 3236 c0 -2 7 -7 16 -10 8 -3 12 -2 9 4 -6 10 -25 14 -25 6z"/>
<path d="M963 3175 c0 -27 2 -38 4 -22 2 15 2 37 0 50 -2 12 -4 0 -4 -28z"/>
<path d="M974 3025 c0 -55 1 -76 3 -47 2 29 2 74 0 100 -2 26 -3 2 -3 -53z"/>
<path d="M2501 3058 c-59 -65 -202 -175 -238 -184 -24 -7 -32 -34 -10 -34 27
0 232 131 232 148 0 4 18 33 39 65 22 31 37 59 35 61 -2 2 -28 -23 -58 -56z"/>
<path d="M2580 3040 c-1 -3 -2 -32 -3 -65 -5 -98 -57 -164 -380 -475 -60 -58
-163 -172 -230 -255 -66 -82 -146 -181 -177 -220 -33 -41 -79 -117 -110 -182
-29 -62 -55 -111 -57 -110 -2 2 20 57 48 123 57 131 55 118 38 334 -7 101 -8
162 -1 200 12 64 75 204 87 193 4 -5 5 -3 1 4 -3 6 9 42 29 78 32 61 35 74 35
151 0 46 -4 84 -8 84 -28 0 -271 -188 -331 -256 l-41 -47 52 -49 53 -49 -82 4
c-66 4 -83 2 -87 -10 -11 -29 -6 -219 10 -342 13 -102 47 -264 89 -421 4 -18
2 -16 -9 7 -8 17 -27 76 -41 129 -51 186 -66 291 -72 478 l-6 179 84 -6 84 -7
-23 20 c-13 11 -35 28 -49 38 l-26 19 28 37 28 37 -29 -11 c-40 -15 -254 -99
-282 -111 -16 -6 -21 -6 -17 1 10 16 -26 11 -72 -10 -28 -12 -43 -26 -43 -37
0 -10 16 -67 35 -128 37 -118 41 -138 20 -90 -8 17 -14 25 -15 18 0 -22 23
-62 33 -56 5 3 6 -3 2 -17 -4 -14 -3 -20 3 -16 10 6 26 -23 17 -32 -3 -3 -5 1
-5 8 0 7 -2 11 -5 8 -9 -8 6 -38 16 -32 5 3 6 -1 3 -9 -7 -18 87 -200 158
-308 265 -397 632 -585 1003 -514 189 36 338 120 508 287 65 63 97 101 92 109
-5 7 -4 10 3 5 9 -6 40 33 33 42 -2 2 1 7 5 10 4 4 4 1 0 -5 -4 -7 -5 -13 -3
-13 6 0 79 107 106 155 21 37 21 38 2 16 -27 -30 -27 -22 0 23 23 39 32 46 23
19 -5 -14 -4 -15 4 -4 6 8 8 20 5 27 -5 14 16 59 24 51 2 -3 0 -16 -7 -29 -11
-22 -10 -22 5 -3 8 11 13 25 10 32 -2 8 7 39 21 71 37 82 78 196 102 280 l21
72 -30 16 c-16 8 -59 18 -95 21 -36 3 -60 9 -54 13 6 4 -23 24 -67 48 -43 22
-103 54 -133 71 l-54 30 -21 -52 c-11 -29 -40 -90 -63 -136 l-43 -83 -62 6
c-150 16 -157 14 -45 -11 65 -14 115 -30 112 -34 -16 -26 -625 -567 -736 -655
-73 -57 -171 -134 -218 -171 -116 -91 -70 -41 60 66 58 47 107 88 110 91 3 3
46 39 95 80 50 41 164 142 255 225 91 82 218 197 282 255 65 58 114 108 110
111 -4 4 -81 21 -172 39 -91 18 -169 37 -175 43 -10 9 192 4 310 -9 l50 -5 53
90 c51 87 72 137 72 172 0 22 -249 369 -250 349z m-236 -736 c46 -46 -18 -129
-73 -95 -23 15 -18 71 8 93 28 22 45 23 65 2z m443 -406 c-3 -8 -6 -5 -6 6 -1
11 2 17 5 13 3 -3 4 -12 1 -19z m263 -17 c-5 -11 -15 -23 -21 -27 -6 -3 -3 5
6 20 20 30 30 35 15 7z m-273 -48 c-3 -10 -5 -2 -5 17 0 19 2 27 5 18 2 -10 2
-26 0 -35z m233 -12 c-5 -11 -15 -23 -21 -27 -6 -3 -3 5 6 20 20 30 30 35 15
7z m-249 -147 c-6 -96 -8 -111 -10 -58 -1 70 9 198 15 191 2 -2 0 -61 -5 -133z
m-1234 4 c-3 -8 -6 -5 -6 6 -1 11 2 17 5 13 3 -3 4 -12 1 -19z"/>
<path d="M2291 2294 c-26 -18 -29 -69 -5 -78 20 -8 29 -1 19 13 -3 6 -11 9
-16 6 -5 -4 -8 4 -6 17 3 29 28 40 44 19 14 -19 26 -11 17 12 -8 23 -29 27
-53 11z"/>
<path d="M2320 2234 c0 -8 5 -12 10 -9 6 3 10 10 10 16 0 5 -4 9 -10 9 -5 0
-10 -7 -10 -16z"/>
<path d="M2514 3008 l-19 -23 23 19 c21 18 27 26 19 26 -2 0 -12 -10 -23 -22z"/>
<path d="M3376 2899 c-4 -44 -5 -83 -3 -85 3 -3 8 31 12 76 4 45 5 83 2 86 -2
3 -8 -32 -11 -77z"/>
<path d="M983 2885 c0 -22 2 -30 4 -17 2 12 2 30 0 40 -3 9 -5 -1 -4 -23z"/>
<path d="M1900 2854 c0 -5 24 -32 53 -59 l52 -50 -50 55 c-27 30 -51 57 -52
59 -2 2 -3 0 -3 -5z"/>
<path d="M1970 2838 c0 -14 41 -76 53 -80 22 -8 187 4 182 13 -3 4 -12 6 -20
2 -9 -3 -15 1 -15 8 0 9 -3 10 -8 4 -4 -5 -24 -11 -44 -12 -29 -1 -38 3 -39
15 0 11 -2 12 -6 4 -2 -6 -9 -10 -14 -6 -5 3 -9 0 -9 -5 0 -6 -7 -11 -16 -11
-10 0 -14 6 -11 14 4 11 1 13 -10 9 -13 -5 -15 -2 -11 15 4 14 2 20 -4 16 -6
-4 -14 0 -19 7 -5 8 -9 11 -9 7z"/>
<path d="M992 2795 c0 -16 2 -22 5 -12 2 9 2 23 0 30 -3 6 -5 -1 -5 -18z"/>
<path d="M3362 2775 c0 -16 2 -22 5 -12 2 9 2 23 0 30 -3 6 -5 -1 -5 -18z"/>
<path d="M1002 2720 c0 -14 2 -19 5 -12 2 6 2 18 0 25 -3 6 -5 1 -5 -13z"/>
<path d="M1870 2678 c-42 -53 -42 -53 -3 -12 21 23 45 44 53 46 9 3 10 7 3 11
-6 4 -29 -15 -53 -45z"/>
<path d="M2000 2718 c0 -9 -4 -18 -10 -20 -5 -1 21 -3 58 -4 l67 -1 -50 10
c-27 5 -53 15 -57 21 -5 7 -8 5 -8 -6z"/>
<path d="M3352 2710 c0 -14 2 -19 5 -12 2 6 2 18 0 25 -3 6 -5 1 -5 -13z"/>
<path d="M2028 2683 c7 -3 16 -2 19 1 4 3 -2 6 -13 5 -11 0 -14 -3 -6 -6z"/>
<path d="M1016 2640 c4 -25 10 -54 15 -65 10 -24 0 48 -12 85 -6 16 -7 10 -3
-20z"/>
<path d="M2087 2673 c18 -2 50 -2 70 0 21 2 7 4 -32 4 -38 0 -55 -2 -38 -4z"/>
<path d="M3341 2644 c0 -11 3 -14 6 -6 3 7 2 16 -1 19 -3 4 -6 -2 -5 -13z"/>
<path d="M2109 2613 c-13 -16 -12 -17 4 -4 9 7 17 15 17 17 0 8 -8 3 -21 -13z"/>
<path d="M3322 2558 c-7 -28 -11 -53 -8 -55 2 -2 9 19 16 47 7 28 10 53 8 55
-3 3 -10 -18 -16 -47z"/>
<path d="M2045 2564 c-22 -19 -59 -47 -82 -62 -24 -15 -43 -33 -43 -39 0 -21
9 -16 89 54 42 37 78 69 80 70 2 2 2 5 0 7 -2 2 -22 -11 -44 -30z"/>
<path d="M1041 2524 c0 -11 3 -14 6 -6 3 7 2 16 -1 19 -3 4 -6 -2 -5 -13z"/>
<path d="M1051 2484 c0 -11 3 -14 6 -6 3 7 2 16 -1 19 -3 4 -6 -2 -5 -13z"/>
<path d="M3301 2474 c0 -11 3 -14 6 -6 3 7 2 16 -1 19 -3 4 -6 -2 -5 -13z"/>
<path d="M1061 2450 c0 -8 4 -24 9 -35 5 -13 9 -14 9 -5 0 8 -4 24 -9 35 -5
13 -9 14 -9 5z"/>
<path d="M3291 2434 c0 -11 3 -14 6 -6 3 7 2 16 -1 19 -3 4 -6 -2 -5 -13z"/>
<path d="M1886 2398 c-19 -26 -21 -64 -4 -74 15 -10 38 24 38 57 0 37 -15 44
-34 17z m17 -3 c-3 -9 -8 -14 -10 -11 -3 3 -2 9 2 15 9 16 15 13 8 -4z"/>
<path d="M3272 2373 c-15 -48 -8 -55 8 -8 7 20 10 38 8 41 -3 2 -10 -13 -16
-33z"/>
<path d="M3221 2229 c-6 -18 -9 -34 -7 -36 2 -2 9 10 15 28 6 18 9 34 7 36 -2
2 -9 -10 -15 -28z"/>
<path d="M3173 2113 c-3 -10 -8 -22 -11 -27 -3 -5 0 -6 5 -3 11 7 25 47 17 47
-3 0 -7 -8 -11 -17z"/>
<path d="M647 4924 c-32 -41 -54 -74 -50 -74 5 0 32 -21 61 -46 51 -45 93
-108 85 -130 -4 -11 69 -74 87 -74 22 0 22 31 0 55 l-22 24 46 60 c26 34 50
61 54 61 4 0 18 -7 31 -16 21 -15 24 -15 39 0 15 14 13 18 -24 51 -25 22 -46
33 -58 30 -12 -2 -36 8 -60 28 -23 18 -61 49 -86 69 l-46 37 -57 -75z m192
-119 c0 -5 -11 -23 -26 -40 -25 -29 -26 -29 -37 -10 -6 11 -33 41 -60 68 -48
46 -48 47 -32 72 l17 26 69 -53 c38 -29 69 -57 69 -63z"/>
<path d="M3650 4844 c-68 -25 -126 -47 -128 -49 -2 -1 3 -13 10 -25 13 -21 21
-21 73 -6 15 5 25 -2 41 -27 21 -33 21 -34 3 -58 -23 -30 -23 -38 -3 -67 15
-22 17 -21 93 85 42 59 80 114 85 121 7 12 -28 73 -42 71 -4 0 -63 -20 -132
-45z m89 -56 c-18 -24 -34 -45 -36 -47 -4 -6 -32 32 -33 44 0 10 64 42 88 44
8 1 0 -17 -19 -41z"/>
<path d="M507 4732 c-10 -10 -17 -21 -17 -24 0 -4 20 -18 45 -32 44 -26 45
-27 31 -54 -34 -65 -37 -66 -88 -37 l-45 25 -16 -24 c-16 -24 -16 -24 100 -95
63 -39 119 -68 124 -65 5 3 13 13 19 24 8 16 2 23 -41 50 -48 29 -50 32 -36
53 7 12 20 32 28 44 l13 22 52 -29 51 -30 13 25 c7 14 11 26 9 28 -5 5 -97 63
-165 105 -28 18 -53 32 -56 32 -3 0 -12 -8 -21 -18z"/>
<path d="M3800 4635 c-58 -35 -109 -66 -114 -68 -5 -2 -1 -15 8 -30 l18 -26
39 25 40 25 19 -23 c11 -13 19 -26 20 -29 0 -10 50 -29 75 -29 13 0 36 11 51
24 22 18 28 32 27 60 -1 37 -47 126 -68 132 -5 2 -57 -26 -115 -61z m128 -59
c-3 -26 -8 -32 -33 -34 -19 -3 -33 2 -42 14 -18 25 -17 30 19 52 40 25 60 13
56 -32z"/>
<path d="M4020 4463 c-57 -22 -220 -104 -220 -111 0 -4 6 -16 13 -26 13 -18
15 -18 62 3 26 11 49 21 51 21 5 0 44 -78 44 -88 0 -4 -22 -18 -50 -30 -54
-24 -57 -28 -36 -57 13 -18 18 -17 130 35 65 29 119 57 122 62 8 12 -16 50
-29 45 -7 -3 -29 -12 -49 -21 l-36 -16 -22 46 c-22 44 -22 46 -4 59 11 8 24
15 30 15 5 0 18 6 28 13 15 11 17 17 7 35 -12 23 -16 24 -41 15z"/>
<path d="M374 4450 c-11 -4 -33 -22 -47 -40 -54 -63 -26 -171 53 -204 65 -27
79 -28 123 -7 72 35 98 121 57 189 -34 55 -127 86 -186 62z m114 -80 c31 -22
42 -37 42 -57 0 -58 -65 -82 -130 -48 -33 17 -65 69 -54 88 32 56 80 62 142
17z"/>
<path d="M231 4188 c-10 -29 -8 -35 29 -83 22 -29 40 -55 40 -58 0 -3 -25 3
-55 13 l-55 19 -6 -25 c-4 -14 -3 -28 0 -32 8 -7 249 -93 251 -89 1 1 5 14 9
29 6 25 3 28 -44 43 -28 9 -50 22 -50 30 0 25 32 39 81 37 45 -2 50 0 59 24 6
14 10 27 10 30 0 2 -28 4 -63 4 -41 0 -70 -5 -85 -16 -13 -9 -25 -14 -26 -13
-2 2 -20 30 -40 62 -20 31 -38 57 -40 57 -2 0 -9 -14 -15 -32z"/>
<path d="M4083 4170 c-12 -5 -24 -21 -28 -40 -5 -23 -10 -29 -18 -21 -6 6 -38
11 -70 11 -50 0 -58 -2 -53 -16 3 -9 6 -19 6 -24 0 -4 25 -10 55 -12 31 -3 60
-9 65 -14 21 -22 13 -36 -30 -54 -46 -18 -57 -34 -40 -60 8 -12 27 -8 131 28
68 23 125 44 127 47 2 2 -4 29 -13 60 -26 89 -69 120 -132 95z m77 -69 c5 -11
10 -26 10 -33 0 -15 -58 -41 -71 -32 -11 6 -12 68 -2 77 13 14 53 6 63 -12z"/>
<path d="M1845 1129 c-229 -8 -617 -39 -790 -64 -55 -8 -138 -19 -185 -25
-178 -22 -761 -137 -777 -153 -2 -3 7 -49 21 -103 13 -55 50 -207 81 -339 72
-302 79 -330 91 -328 5 0 74 15 154 32 430 91 887 153 1304 176 150 9 700 9
854 0 282 -15 737 -68 997 -116 127 -23 441 -88 459 -95 8 -3 27 58 60 198 26
112 68 286 93 387 24 101 42 185 40 188 -11 10 -325 76 -612 128 -67 12 -254
39 -420 60 -155 20 -534 47 -765 55 -298 10 -283 10 -605 -1z m755 -185 c17
-4 47 -21 66 -39 45 -43 47 -94 6 -133 l-28 -27 28 -23 c23 -19 28 -32 28 -66
0 -80 -59 -126 -162 -126 -96 0 -156 39 -174 113 -6 26 -5 27 38 27 38 0 48
-5 66 -30 18 -24 30 -30 62 -30 22 0 45 7 54 16 34 34 8 84 -45 84 -27 0 -29
3 -29 35 0 33 2 35 35 35 28 0 38 5 47 26 11 23 10 29 -11 45 -33 27 -77 24
-108 -7 -21 -21 -32 -25 -59 -19 -41 7 -44 29 -12 70 38 48 110 66 198 49z
m-440 -220 c0 -107 1 -114 20 -114 18 0 20 -7 20 -70 l0 -70 -30 0 c-28 0 -30
3 -30 36 l0 36 -124 -4 -124 -4 -6 51 c-3 27 -6 96 -6 153 l0 102 44 0 44 0 7
-115 7 -115 39 0 39 0 0 114 0 115 43 3 c23 2 45 2 50 0 4 -2 7 -55 7 -118z
m-356 79 c3 -21 6 -91 6 -155 l0 -118 -45 0 -45 0 0 60 0 60 -47 0 -48 0 3
-65 4 -65 -45 0 c-55 0 -53 -5 -62 166 l-7 132 45 3 c51 4 57 -3 57 -68 0 -32
1 -33 45 -33 l45 0 0 54 c0 58 4 62 61 65 23 1 27 -4 33 -36z m-1228 -7 c5
-21 13 -24 60 -28 93 -8 144 -66 144 -164 0 -66 -29 -111 -93 -143 -41 -20
-48 -27 -43 -46 5 -18 1 -24 -17 -29 -46 -12 -67 -7 -67 17 0 20 -5 22 -50 24
-87 4 -145 60 -157 152 -7 52 18 104 68 140 23 17 48 31 56 31 8 0 13 11 13
29 0 26 4 30 33 34 17 2 35 5 39 5 4 1 10 -9 14 -22z m2404 6 c54 -26 59 -49
47 -185 -10 -113 -11 -118 -31 -113 -12 3 -31 6 -43 6 -16 0 -23 6 -23 20 0
20 0 20 -29 -1 -59 -44 -161 -2 -161 66 0 64 56 105 145 105 51 0 55 2 55 24
0 40 -71 52 -90 16 -9 -17 -17 -20 -48 -14 -46 8 -45 8 -37 34 18 55 141 80
215 42z m-1555 -24 c17 -20 23 -44 29 -109 4 -46 9 -100 12 -120 l6 -37 -42
-4 c-35 -3 -44 0 -48 14 -4 16 -7 15 -34 -7 -38 -32 -104 -34 -142 -4 -20 16
-26 29 -26 60 0 56 37 91 113 108 60 13 74 34 42 61 -18 15 -62 0 -71 -25 -4
-10 -20 -15 -50 -15 -49 0 -54 11 -28 49 45 63 194 82 239 29z m1738 15 c32
-5 41 -12 59 -47 l21 -40 31 35 c28 31 35 34 69 29 l38 -5 -50 -60 c-28 -33
-51 -63 -51 -67 0 -4 16 -41 35 -82 19 -41 35 -79 35 -83 0 -5 -21 -6 -47 -3
-46 5 -48 7 -73 59 l-26 53 -40 -47 c-37 -44 -41 -46 -76 -40 l-37 7 60 75 59
76 -35 64 c-48 89 -48 89 28 76z m-2086 -47 c53 -45 71 -171 33 -233 -26 -43
-54 -56 -107 -50 l-44 5 7 -58 6 -57 -37 -7 c-21 -4 -41 -4 -46 1 -4 4 -19 91
-34 193 -15 101 -29 188 -31 191 -6 10 23 19 62 19 19 0 34 -5 34 -11 0 -6 12
-1 26 10 37 29 95 28 131 -3z m2522 -11 c54 -28 81 -71 81 -131 0 -61 15 -56
-114 -34 -81 14 -86 13 -86 -12 0 -50 64 -77 96 -39 14 16 22 17 55 8 21 -5
39 -13 39 -16 0 -10 -51 -57 -77 -70 -29 -15 -74 -14 -114 3 -70 29 -105 95
-93 174 15 101 126 162 213 117z m229 -35 c15 0 22 -6 22 -19 0 -18 2 -18 28
-5 37 18 94 3 122 -33 39 -50 22 -183 -32 -240 -39 -41 -110 -42 -147 -1 -19
20 -19 19 -26 -34 -10 -76 -12 -79 -63 -66 -32 8 -41 14 -37 27 3 9 16 84 30
166 14 83 29 165 32 183 5 28 9 33 27 28 12 -3 31 -6 44 -6z"/>
<path d="M600 672 c4 -16 11 -56 15 -90 8 -70 21 -78 55 -34 41 51 1 152 -60
152 -16 0 -17 -4 -10 -28z"/>
<path d="M471 656 c-43 -46 -23 -136 35 -150 14 -4 28 -5 31 -3 2 3 -3 42 -11
87 -9 45 -16 84 -16 86 0 11 -19 1 -39 -20z"/>
<path d="M2856 637 c-11 -8 -17 -23 -14 -38 2 -18 10 -25 33 -27 33 -4 55 18
55 55 0 19 -5 23 -28 23 -16 0 -36 -6 -46 -13z"/>
<path d="M1323 635 c-41 -17 -57 -46 -39 -70 9 -13 20 -16 39 -11 28 7 42 36
35 74 -3 19 -5 20 -35 7z"/>
<path d="M940 675 c-12 -31 4 -123 24 -144 21 -20 62 -6 70 23 7 27 0 76 -16
119 -14 37 -64 39 -78 2z"/>
<path d="M3509 669 c-26 -26 -17 -35 44 -43 46 -6 48 -5 42 17 -8 25 -32 47
-52 47 -7 0 -22 -9 -34 -21z"/>
<path d="M3846 598 c-8 -13 -17 -46 -21 -74 -7 -52 8 -84 39 -84 36 0 74 107
55 157 -11 31 -53 31 -73 1z"/>
<path d="M17 872 c-11 -2 -16 -10 -13 -20 3 -9 24 -93 46 -187 22 -93 54 -224
70 -290 16 -66 39 -160 50 -210 12 -50 25 -106 31 -127 l9 -36 58 14 c185 46
512 107 742 139 428 59 707 78 1170 78 379 -1 553 -9 885 -44 306 -31 746
-106 1017 -173 52 -13 58 -13 62 2 3 10 19 75 36 147 53 222 111 465 140 583
l28 113 -21 8 c-12 5 -23 8 -24 7 -1 -1 -71 -287 -144 -592 l-52 -222 -31 9
c-67 20 -479 99 -616 119 -80 11 -152 23 -160 25 -8 2 -130 16 -270 30 -904
89 -1721 45 -2618 -142 -95 -20 -174 -34 -176 -32 -2 2 -27 103 -56 224 -90
377 -139 577 -142 579 -2 1 -11 1 -21 -2z"/>
</g>
</svg>
