<?xml version="1.0" encoding="utf-8"?>

<!DOCTYPE svg PUBLIC "-//W3C//DTD SVG 1.1//EN" "http://www.w3.org/Graphics/SVG/1.1/DTD/svg11.dtd">
<svg version="1.1" xmlns="http://www.w3.org/2000/svg" xmlns:xlink="http://www.w3.org/1999/xlink" x="0px" y="0px" fill="#feffe1" width="22" height="22" viewBox="0 0 1000 800" enable-background="new 0 0 1000 1000" xml:space="preserve">
<metadata> Svg Vector Icons : http://www.onlinewebfonts.com/icon </metadata>
<g><g transform="translate(0.000000,511.000000) scale(0.100000,-0.100000)"><path d="M2858.8,4971.5c-36.8-22.5-73.6-61.3-81.7-87.9c-10.2-24.5-14.3-284.1-12.3-576.3c10.2-811.3-45-1412.1-175.7-1945.4C2374.5,1487.3,2035.3,1023.4,1506,884.5c-343.3-92-621.2-374-754.1-770.4c-134.9-404.6-139-1034-10.2-1784c98.1-582.4,339.2-1446.8,576.3-2074.2c83.8-224.8,110.4-271.8,167.6-312.7l67.4-45l2162,4.1c2127.3,6.1,2160,6.1,2207,47c98.1,87.9,445.5,888.9,572.2,1324.2c26.6,85.8,53.1,157.3,61.3,157.3c6.1,0,75.6-36.8,153.3-79.7c77.7-42.9,192.1-106.3,253.4-136.9l112.4-59.3l6.1-290.2c6.1-288.1,4.1-292.2-40.9-300.4c-463.9-87.9-637.6-151.2-790.8-290.2c-126.7-114.5-186-233-186-371.9c0-247.3,175.7-445.5,506.8-568.1c600.8-226.8,1453-132.8,1812.6,198.2c177.8,163.5,218.7,402.6,104.2,600.8c-120.6,206.4-441.4,367.8-825.6,414.8l-116.5,14.3l-6.1,318.8l-4.1,316.7l75.6,36.8c141,65.4,545.6,312.7,729.5,443.4c228.9,163.5,570.1,488.4,707.1,670.3c120.6,163.5,251.3,437.3,284.1,590.6c28.6,136.9,28.6,408.7,0,568.1c-49.1,275.9-163.5,543.6-343.3,799c-122.6,175.7-455.7,527.2-535.4,570.1c-47,24.5-249.3,28.6-1187.3,28.6c-621.2,0-1199.6,10.2-1283.3,20.4c-228.9,30.7-384.2,114.4-582.4,314.7c-179.8,183.9-261.6,306.5-380.1,582.4c-263.6,615.1-388.3,1410-388.3,2491v557.9l-59.3,65.4l-57.2,65.4l-794.9,6.1C2954.9,5012.4,2924.2,5012.4,2858.8,4971.5z M4183,4327.8v-235h-480.2h-480.2v235v235h480.2H4183V4327.8z M8376.3,338.8c198.2-208.4,425.1-553.8,425.1-645.8c0-22.5-57.2-30.7-239.1-40.9c-271.8-16.3-472.1-47-778.6-124.6c-484.3-124.7-1013.6-114.5-1837.1,32.7c-139,24.5-251.3,51.1-251.3,61.3c0,42.9,130.8,298.3,216.6,421c126.7,181.9,294.2,374,345.3,394.4c22.5,8.2,482.3,16.3,1023.8,16.3l982.9,2L8376.3,338.8z M5192.5-560.3c-24.5-183.9-16.3-412.8,20.4-555.8c42.9-167.6,169.6-410.8,298.3-570.1c57.2-69.5,102.2-130.8,102.2-136.9s-987-10.2-2194.7-10.2H1226l-34.7,190c-61.3,333.1-94,649.9-94,927.8v271.8h2055.8h2053.7L5192.5-560.3z M7084.8-4042.5c0-136.9,4.1-149.2,69.5-214.6c79.7-79.7,157.3-89.9,259.5-36.8c79.7,38.8,120.6,139,120.6,284.1c0,130.8-2,130.8,202.3,79.7c145.1-36.8,306.5-110.4,345.3-157.4c34.7-40.9-12.3-87.9-149.2-149.2c-284.1-128.8-825.6-147.1-1146.4-40.9c-183.9,63.3-288.2,130.8-267.7,179.8c22.5,63.3,365.8,192.1,521.1,198.2C7082.8-3897.4,7084.8-3905.6,7084.8-4042.5z"/></g></g>
</svg>