<?xml version="1.0" encoding="utf-8"?>
<!DOCTYPE svg PUBLIC "-//W3C//DTD SVG 1.1//EN" "http://www.w3.org/Graphics/SVG/1.1/DTD/svg11.dtd">
<svg version="1.1" xmlns="http://www.w3.org/2000/svg" xmlns:xlink="http://www.w3.org/1999/xlink" x="0px" y="0px" fill="#feffe1" width="18" height="18" viewBox="0 0 1000 900" enable-background="new 0 0 1000 1000" xml:space="preserve">
<metadata> Svg Vector Icons : http://www.onlinewebfonts.com/icon </metadata>
<g><path d="M800.4,549.5c22.8-15.4,46.9-29,71.8-40.8c-27.6-40.2-59.5-80.8-95.6-120.8C722,392,669,403,619.6,421.9c-102.5,39.4-144.2-13.9-47.2-80.3c32.2-21.9,66.8-39.7,103.2-53.8c-45.1-40.3-91.3-76.3-137.4-107.3c-50.9,4.8-100.3,15.8-146.7,33.6c-102.3,39.3-144.2-14-47.1-80.3c17.8-12.2,36.6-22.7,55.8-32.6c-156.1-73.6-294.5-83-360.5-10.6C-65.5,206,123.4,408.8,375.3,638.4c251.8,229.6,471.1,399,576.5,283.5c59.6-65.4,47-183.8-20.8-315.9c-28.6,6.1-56.7,13.4-83.4,23.8C745.1,669.1,703.3,615.9,800.4,549.5L800.4,549.5z"/></g>
</svg>