<?xml version="1.0" encoding="utf-8"?>
<!DOCTYPE svg PUBLIC "-//W3C//DTD SVG 1.1//EN" "http://www.w3.org/Graphics/SVG/1.1/DTD/svg11.dtd">
<svg version="1.1" xmlns="http://www.w3.org/2000/svg" xmlns:xlink="http://www.w3.org/1999/xlink" x="0px" y="0px" fill="#feffe1" width="22" height="22"  viewBox="0 0 1000 900" enable-background="new 0 0 1000 1000" xml:space="preserve">
<metadata> Svg Vector Icons : http://www.onlinewebfonts.com/icon </metadata>
<g><g><path d="M825.3,336C676.8,169.5,495.1,88.6,419.5,155.3c-75.6,66.7-16.6,255.7,131.8,422.1c148.4,166.5,330.1,247.4,405.8,180.7C1032.7,691.5,973.7,502.5,825.3,336z M838.7,428c4.6-4.1,14.7-0.3,22.5,8.4c7.9,8.8,10.5,19.2,6,23.3c-4.6,4.1-14.7,0.3-22.5-8.4C836.8,442.5,834.1,432.1,838.7,428z M686.8,301.7c2.5,1.1,4.8,11,5.2,22c0.4,11-1.3,19-3.7,18c-2.4-1.2-4.8-11-5.2-22.1C682.7,308.6,684.4,300.6,686.8,301.7z M527.6,477.1c-4.6,4.1-14.7,0.4-22.5-8.4c-7.9-8.7-10.6-19.2-6-23.3c4.6-4.1,14.7-0.4,22.5,8.4C529.5,462.6,532.2,473,527.6,477.1z M576.2,424.1c-11.6-4.8-21.2-10.7-21.4-13c-0.2-2.4,9-0.4,20.6,4.4c11.6,4.8,21.2,10.6,21.5,13C597,430.8,587.8,428.8,576.2,424.1z M597.5,352.3c-10.5,9.4-36-2.1-57.1-25.5c-21.1-23.5-29.7-50.2-19.3-59.5c10.5-9.4,36,2,57.1,25.5C599.4,316.2,608,342.9,597.5,352.3z M629.6,246.2c-4.6,4.1-14.7,0.3-22.5-8.4c-7.9-8.8-10.5-19.2-5.9-23.3c4.6-4.1,14.7-0.4,22.5,8.4C631.5,231.6,634.2,242,629.6,246.2z M695.1,547.2c-7.8,6.9-24.7,0.5-38-14.2c-13.3-14.8-17.8-32.4-10-39.3c7.8-6.9,24.8-0.6,38,14.2C698.4,522.6,702.9,540.2,695.1,547.2z M760,658.9c-4.6,4.1-14.7,0.4-22.5-8.4c-7.9-8.8-10.5-19.2-5.9-23.3c4.6-4.1,14.7-0.3,22.5,8.4C761.9,644.4,764.5,654.8,760,658.9z M750.2,449.5c-13.3-14.8-16.9-33.2-8-41.2c8.9-7.9,26.8-2.4,40.1,12.4c13.3,14.8,16.8,33.2,8,41.2C781.4,469.8,763.4,464.2,750.2,449.5z M807.4,616.8c-10.9-9.3-19-18.1-18.1-19.8c0.8-1.7,10.4,4.4,21.3,13.7c10.9,9.2,19,18.2,18.1,19.8C827.8,632.1,818.3,626,807.4,616.8z M891.2,623.9c-4.8,4.3-22.4-7.6-39.4-26.5c-17-19-26.9-37.8-22.1-42.1c4.7-4.3,22.4,7.6,39.4,26.6C886.1,600.8,896,619.7,891.2,623.9z M520.1,613.1c-16.9-19-32.7-38.3-47.5-57.8c-5.5,2.1-11.8,3.2-18.5,2.7c-19.8-1.5-34.9-15.6-33.7-31.4c0.7-9.5,7.1-17.3,16.3-21.9c-27.8-42.3-50.5-84.9-67.2-126.3c-193.7,3.1-349,91.6-359,212.7C-0.5,725.2,170.9,848.3,393.2,866c137,10.9,261.3-20.9,339.1-78.2C660.6,747.9,587,688.1,520.1,613.1z M207.4,462.9c11.7,0.9,20.8,8.2,20.1,16.4c-0.6,8.2-10.6,14.1-22.3,13.2c-11.7-0.9-20.8-8.2-20.1-16.4C185.6,468,195.6,462,207.4,462.9z M215.9,639.4c-31.5-2.4-55.9-19.5-54.5-38.2c1.4-18.7,28.1-32,59.6-29.6c31.5,2.4,55.9,19.4,54.5,38.1C274,628.5,247.3,641.7,215.9,639.4z M285.6,806.8c-11.7-0.8-20.8-8.2-20.2-16.4c0.6-8.2,10.6-14.2,22.4-13.3c11.7,0.8,20.7,8.2,20.1,16.4C307.3,801.8,297.3,807.7,285.6,806.8z M308.1,697.7c-11.9,6.4-22.9,9.9-24.6,7.9c-1.8-2,6.4-8.9,18.3-15.2c11.8-6.4,22.9-10,24.7-7.9C328.1,684.4,319.9,691.3,308.1,697.7z M335.4,514.4c-2.6,1.2-11-5.9-18.7-15.9c-7.7-10.1-11.9-19.3-9.4-20.5c2.6-1.3,11,5.9,18.7,15.9C333.8,504,338,513.1,335.4,514.4z M441.6,724.4c-19.8-1.5-35-13.9-34-27.7c1-13.8,17.9-23.8,37.7-22.3c19.8,1.5,35,13.9,34,27.8C478.3,715.9,461.4,725.9,441.6,724.4z M602.7,746.7c-0.6,8.2-10.6,14.1-22.4,13.3c-11.7-0.8-20.7-8.2-20.1-16.4c0.6-8.2,10.6-14.1,22.4-13.3C594.4,731.2,603.3,738.6,602.7,746.7z"/></g><g></g><g></g><g></g><g></g><g></g><g></g><g></g><g></g><g></g><g></g><g></g><g></g><g></g><g></g><g></g></g>
</svg>