<?xml version="1.0" encoding="utf-8"?>
<!DOCTYPE svg PUBLIC "-//W3C//DTD SVG 1.1//EN" "http://www.w3.org/Graphics/SVG/1.1/DTD/svg11.dtd">
<svg version="1.1" xmlns="http://www.w3.org/2000/svg" xmlns:xlink="http://www.w3.org/1999/xlink" x="0px" y="0px" fill="#feffe1" width="18" height="18"  viewBox="0 0 1000 1000" enable-background="new 0 0 1000 1000" xml:space="preserve">
<metadata> Svg Vector Icons : http://www.onlinewebfonts.com/icon </metadata>
<g><g transform="translate(0.000000,512.000000) scale(0.100000,-0.100000)"><path d="M3342.9,5010.2c-358.3-65.2-772.3-291.3-1165.1-636.2c-222.3-195.5-247.2-252.9-172.5-394.8c76.7-147.6,314.3-369.9,479.1-452.3c344.9-168.6,651.6-164.8,1504.3,15.3c126.5,26.8,272.1,49.8,321.9,49.8c187.8,0,254.9,67.1,308.5,308.5c67.1,297,55.6,477.2-46,682.2c-93.9,189.7-298.9,335.4-559.6,398.6C3867.9,5017.9,3469.3,5033.2,3342.9,5010.2z"/><path d="M1372.9,3734c-168.6-151.4-352.6-500.2-515.5-973.5c-151.4-440.8-178.2-557.6-147.6-634.3c32.6-76.7,97.7-124.6,172.5-124.6c30.7,0,176.3,38.3,323.9,86.2c739.7,243.4,1682.5,400.5,2843.8,477.2c446.5,28.7,440.8,24.9,502.1,274c40.2,157.1,40.2,164.8,7.7,231.9c-69,139.9-159.1,147.6-601.7,51.7c-427.3-93.9-642-124.6-893-124.6c-563.4,0-988.8,205-1312.7,632.4c-105.4,139.9-149.5,170.6-239.5,172.5C1466.8,3802.9,1428.5,3783.8,1372.9,3734z"/><path d="M3969.5,2153c-939-61.3-1983.4-241.5-2659.8-458c-596-191.6-1006.1-442.7-1155.5-712.9c-53.7-99.6-55.6-107.3-53.7-369.8c1.9-406.3,86.2-894.9,237.6-1404.7c109.2-364.1,228-655.4,419.7-1029.1c289.4-569.2,599.8-990.8,1038.6-1418.1c948.6-923.7,2146.3-1418.1,3700.4-1525.4c438.8-28.7,592.2-21.1,655.4,38.3c53.6,49.8,80.5,147.5,59.4,212.7c-7.7,23-59.4,93.9-116.9,157.1c-260.7,291.3-448.4,674.6-573,1161.3c-182.1,722.5-141.8,1362.5,124.6,1933.6c116.9,251,302.8,488.7,454.2,582.6c69,42.1,120.7,124.6,120.7,189.7c0,90.1-55.6,149.5-214.6,233.8C5596.4-43.1,5224.7,338.2,4948.7,828.8c-193.6,344.9-329.6,737.8-350.7,1009.9C4575.1,2172.2,4536.7,2191.3,3969.5,2153z"/><path d="M6794.2-725.3c-191.6-103.5-530.8-337.3-596-413.9c-279.8-327.7-435-986.9-362.2-1540.7c63.2-469.5,222.3-933.3,429.2-1239.9c86.2-128.4,473.4-517.4,544.2-548.1c53.7-23,93.9-21.1,339.2,21.1c651.5,113.1,1096.1,262.5,1366.3,461.8c113.1,84.3,159.1,151.4,159.1,231.9c0,76.7-38.3,122.6-197.4,243.4c-321.9,241.4-620.9,617-778,977.3c-170.6,389-231.9,711-245.3,1266.7c-3.8,222.3-17.2,427.3-28.7,456.1c-30.7,78.6-97.7,103.5-333.4,116.9C6891.9-681.2,6872.7-683.2,6794.2-725.3z"/><path d="M8520.8-943.8c-26.8-3.8-151.4-21.1-277.9-36.4c-373.7-49.8-406.3-86.2-385.2-410.1c49.8-818.3,337.3-1397,896.8-1818.6c124.6-92,212.7-115,295.1-72.8c93.9,47.9,402.4,350.7,527,517.4c279.8,369.9,377.5,745.5,295.1,1130.6c-38.3,180.1-105.4,320-208.9,431.2c-182.1,195.5-425.4,274-833.6,270.2C8685.5-934.2,8547.6-938,8520.8-943.8z"/></g></g>
</svg>