<?xml version="1.0" encoding="utf-8"?>

<!DOCTYPE svg PUBLIC "-//W3C//DTD SVG 1.1//EN" "http://www.w3.org/Graphics/SVG/1.1/DTD/svg11.dtd">
<svg version="1.1" xmlns="http://www.w3.org/2000/svg" xmlns:xlink="http://www.w3.org/1999/xlink" x="0px" y="0px" fill="#feffe1" width="22" height="22" viewBox="0 0 1000 500" enable-background="new 0 0 1000 1000" xml:space="preserve">
<metadata> Svg Vector Icons : http://www.onlinewebfonts.com/icon </metadata>
<g><g transform="translate(0.000000,511.000000) scale(0.100000,-0.100000)"><path d="M807.3,2593.7c-466.2-103.3-745.8-446-703-856.7c22.7-224.3,80.6-370.4,196.6-504c136.1-153.7,287.3-226.8,698-332.6c189-47.9,372.9-103.3,410.7-123.5c115.9-60.5,367.9-367.9,889.5-1086c367.9-506.5,824-818.9,1436.3-982.7c221.7-58,299.9-65.5,667.7-68c614.8-2.5,1048.2,98.3,1650.4,385.5C6612.9-707.3,7124.4-352,7966.1,353.6c262.1,221.7,635,534.2,831.5,700.5c478.8,400.6,942.4,745.9,1028.1,763.5c186.4,37.8,2.5,83.2-332.6,83.2c-506.5,0-1081-143.6-1650.5-410.7c-950-443.5-1469-645.1-1940.2-745.9c-360.3-78.1-630-90.7-995.3-42.8c-559.4,75.6-1035.6,216.7-1816.8,546.8c-259.5,110.9-483.8,199.1-496.4,199.1c-15.1,0-37.8-20.2-52.9-42.8c-30.2-55.4-30.2-52.9-100.8,131c-186.5,501.4-561.9,892-980.2,1020.5C1240.7,2623.9,998.8,2639,807.3,2593.7z M1291.1,2190.5c403.2-105.8,728.2-504,871.9-1070.9c52.9-209.1,52.9-216.7,10.1-362.9l-42.8-151.2l-115.9,138.6c-312.5,370.4-433.4,443.5-914.7,551.8c-378,85.7-488.8,141.1-554.4,287.3c-95.7,209.2-45.4,418.3,123.5,524.1C862.8,2225.8,1051.7,2251,1291.1,2190.5z"/><path d="M3271.7,1762.1c-88.2-20.1-163.8-40.3-171.4-45.4c-10.1-12.6,362.9-171.3,723.2-307.4c302.4-115.9,829-252,1121.3-292.3c501.4-65.5,1133.9,55.4,1826.8,350.3l113.4,47.9l-163.8,17.6c-90.7,10.1-362.8,40.3-604.7,65.5C4274.6,1807.5,3652.2,1842.8,3271.7,1762.1z"/><path d="M2825.7-1707.6c-93.2-128.5-178.9-247-191.5-264.6c-27.7-35.3,544.3-262.1,846.7-337.7c332.6-78.1,793.7-110.9,1176.7-75.6c395.6,32.8,630,90.7,1058.3,257l325,126l-103.3,146.1c-55.4,80.6-126,176.4-156.2,214.2l-55.4,70.6l-226.8-65.5c-829-234.3-1622.7-206.6-2308.1,85.7c-98.3,40.3-183.9,75.6-186.5,75.6C2999.5-1475.8,2918.9-1581.6,2825.7-1707.6z"/></g></g>
</svg>