<?xml version="1.0" encoding="utf-8"?>
<!DOCTYPE svg PUBLIC "-//W3C//DTD SVG 1.1//EN" "http://www.w3.org/Graphics/SVG/1.1/DTD/svg11.dtd">
<svg version="1.1" xmlns="http://www.w3.org/2000/svg" xmlns:xlink="http://www.w3.org/1999/xlink" x="0px" y="0px" fill="#feffe1" width="20" height="20" viewBox="0 0 1000 1000" enable-background="new 0 0 1000 1000" xml:space="preserve">
<metadata> Svg Vector Icons : http://www.onlinewebfonts.com/icon </metadata>
<g><g transform="translate(0.000000,511.000000) scale(0.100000,-0.100000)"><path d="M4804.2,4968.2c-715.8-151.9-1261.2-651.3-1472.9-1348.7c-25.3-89.8-59.8-269.3-75.9-400.4l-27.6-237.1l-117.4-39.1c-62.1-23-147.3-57.5-186.4-78.3l-73.6-36.8l-568.5,950.5c-313,520.1-575.4,957.4-586.9,968.9c-13.8,16.1-722.7-386.6-798.6-458c-25.3-20.7,89.8-225.5,589.2-1056.4l616.8-1031l-119.7-239.4c-124.3-246.2-179.5-435-207.1-704.2l-16.1-156.5h487.9h485.6v66.7c0,105.9,85.2,352.1,163.4,469.5c154.2,232.4,393.5,384.3,683.5,432.7c303.8,50.6,609.9-50.6,835.4-276.2c151.9-151.9,244-333.7,280.8-540.8l25.3-151.9h478.7h478.7v66.7c0,36.8,18.4,128.9,43.7,207.1c117.4,375.2,398.2,623.7,791.7,695c363.6,66.7,768.7-110.5,980.4-432.7c78.2-117.4,163.4-363.6,163.4-469.5v-66.7h485.6h487.9l-16.1,156.5c-23,239.4-78.2,435-186.4,660.5c-243.9,517.8-628.3,846.9-1233.6,1054.1c-27.6,9.2-41.4,57.5-53,202.5c-82.8,927.5-708.8,1634-1599.5,1802C5296.7,5023.4,5050.5,5021.1,4804.2,4968.2z M5595.9,3960.1c287.7-135.8,499.4-402.7,563.8-713.4c36.8-177.2,32.2-257.8-13.8-273.9c-352.1-119.7-600.7-264.7-828.5-478.7c-126.6-122-131.2-124.3-163.4-78.3c-105.9,149.6-547.8,432.7-821.6,527c-101.3,34.5-115.1,48.3-122,108.2c-11.5,108.1,59.8,370.5,133.5,501.7c124.3,216.3,379.7,411.9,614.5,471.8c48.3,11.5,177.2,18.4,287.7,13.8C5409.5,4031.5,5471.6,4017.7,5595.9,3960.1z"/><path d="M1582.2,558.6c-105.9-46-200.2-138.1-257.8-250.8c-43.7-80.6-46-117.4-34.5-345.2c80.6-1461.4,1466-2883.7,3111.6-3192.1c140.4-25.3,267-50.6,283.1-55.2c20.7-4.6,27.6-80.5,27.6-273.9v-264.7h-736.5h-736.5v-483.3V-4790h1956.2h1956.2v483.3v483.3h-736.5h-738.8l6.9,269.3l6.9,269.3l220.9,39.1c821.6,145,1576.5,538.5,2172.6,1136.9C8705.2-1489.7,9064.2-755.5,9101-37.5c11.5,225.5,9.2,264.6-34.5,345.2c-59.8,115.1-151.9,207.1-262.4,250.8c-75.9,32.2-474.1,36.8-3613.3,36.8C2090.8,593.1,1653.5,588.5,1582.2,558.6z"/></g></g>
</svg>