<?xml version="1.0" encoding="utf-8"?>
<!DOCTYPE svg PUBLIC "-//W3C//DTD SVG 1.1//EN" "http://www.w3.org/Graphics/SVG/1.1/DTD/svg11.dtd">
<svg version="1.1" xmlns="http://www.w3.org/2000/svg" xmlns:xlink="http://www.w3.org/1999/xlink" x="0px" y="0px" fill="#d8a331" width="22" height="22" viewBox="0 0 1000 1000" enable-background="new 0 0 1000 1000" xml:space="preserve">
<metadata> Svg Vector Icons : http://www.onlinewebfonts.com/icon </metadata>
<g><g transform="translate(0.000000,512.000000) scale(0.100000,-0.100000)"><path d="M6546.5,4989.4c-61.3-32.5-53.6-1.9-216.3-744.6c-68.9-315.8-132.1-589.5-139.7-606.8c-11.5-28.7-26.8-26.8-147.4,24.9c-767.5,331.1-1680.5,268-2411.7-164.6c-658.4-390.5-1117.8-1047-1219.3-1739.9l-23-164.6h-185.7c-172.3,0-191.4-3.8-245-49.8l-59.3-49.8v-390.5c0-390.5,0-392.4,47.9-438.3c44-44,59.3-47.9,248.8-47.9c143.6,0,204.8-7.7,210.5-23c11.5-28.7,794.3-5194.8,794.3-5235c0-15.3,24.9-53.6,55.5-84.2l55.5-55.5h1774.3h1772.4l45.9,47.9c26.8,24.9,47.9,53.6,49.8,61.3c0,7.6,143.6,1200.1,319.6,2647.1l319.6,2631.8l218.2,9.6c302.4,13.4,289-9.6,289,488.1v388.6l-59.3,49.8c-53.6,45.9-72.8,49.8-246.9,49.8h-187.6l-11.5,111c-38.3,323.5-181.8,694.8-386.6,1004.9c-141.7,210.5-423,507.2-606.8,635.5c-59.3,42.1-109.1,88.1-109.1,101.4c0,11.5,68.9,333.1,153.1,712c84.2,379,153.1,702.5,153.1,719.7c0,45.9-107.2,141.6-157,141.6C6617.3,5018.1,6575.2,5006.6,6546.5,4989.4z M5384.7,3515.5c493.8-84.2,930.2-308.2,1280.5-658.4c323.5-321.6,547.4-752.2,602.9-1161.8l13.4-101.4H5327.2H3374.9l9.6,63.2c23,124.4,103.4,325.4,181.8,459.4c107.2,179.9,350.3,419.2,545.5,534c241.2,143.6,589.5,245,846,245c82.3,0,111,9.6,147.4,47.8c72.7,70.8,70.8,168.4-1.9,235.4c-59.3,51.7-206.7,57.4-449.8,13.4c-719.7-126.3-1334.1-637.4-1529.3-1272.9c-30.6-99.5-61.3-214.4-67-252.7l-11.5-72.7H2883h-164.6l13.4,101.4c105.3,771.4,744.6,1489.1,1558,1743.7C4626.7,3546.2,5040.1,3574.9,5384.7,3515.5z M7775.4,1105.7V943H5000H2224.6v162.7v162.7H5000h2775.4V1105.7z M7258.6,577.5c0-38.3-593.4-4944-602.9-4988l-9.6-44H5076.5H3508.9l-11.5,61.3c-5.7,34.5-174.2,1144.6-373.2,2465.3C2925.1-607.3,2756.7,502.8,2750.9,537.3l-11.5,61.3H5000C6674.8,598.5,7258.6,592.8,7258.6,577.5z"/></g></g>
</svg>