<?xml version="1.0" encoding="utf-8"?>
<!DOCTYPE svg PUBLIC "-//W3C//DTD SVG 1.1//EN" "http://www.w3.org/Graphics/SVG/1.1/DTD/svg11.dtd">
<svg version="1.1" xmlns="http://www.w3.org/2000/svg" xmlns:xlink="http://www.w3.org/1999/xlink" x="0px" y="0px"  fill="#d8a331" width="22" height="22" viewBox="0 0 1000 900" enable-background="new 0 0 1000 1000" xml:space="preserve">
<metadata> Svg Vector Icons : http://www.onlinewebfonts.com/icon </metadata>
<g><g transform="translate(0.000000,511.000000) scale(0.100000,-0.100000)"><path d="M2023.1,4629.2c-111.7-23.9-355.1-99.7-375-117.7c-4-4,29.9-39.9,73.8-79.8c53.9-49.9,115.7-145.6,189.5-289.3c171.6-343.1,271.3-466.8,454.9-560.6c101.7-51.9,295.2-69.8,407-39.9c289.3,77.8,434.9,411,299.2,686.3C2912.9,4555.4,2468,4725,2023.1,4629.2z"/><path d="M3882.4,4082.6c-413-107.7-674.3-377-782-806c-21.9-87.8-39.9-201.5-39.9-255.4v-97.7l87.8,73.8c75.8,61.8,89.8,87.8,109.7,187.5c75.8,385,373.1,652.3,744.1,674.3c129.7,8,161.6,16,185.5,51.9c31.9,41.9,37.9,125.7,18,179.5C4189.6,4134.5,4067.9,4130.5,3882.4,4082.6z"/><path d="M1628.1,3105.1c-383-69.8-754.1-287.3-1089.2-638.4c-201.5-211.5-321.2-432.9-395-728.2C104,1582.9,100,1509.1,100,1170c0-520.7,73.8-921.7,277.3-1516.2c307.2-897.7,885.8-1600,1472.3-1785.5c197.5-63.8,468.8-97.7,652.4-83.8c163.6,14,347.1,61.9,379,99.7c121.7,147.6,1715.7,2364,1751.6,2437.8c107.7,221.4,271.3,442.9,480.8,648.4c235.4,233.4,426.9,373.1,700.2,510.7l183.5,91.8l-13.9,93.8c-39.9,279.3-193.5,580.5-413,811.9c-482.8,506.7-1077.3,728.2-1657.8,618.4c-349.1-67.8-724.2-285.3-825.9-476.8l-27.9-57.9l-55.9,87.8c-101.7,161.6-379,335.1-664.3,414.9C2170.8,3113.1,1793.7,3133,1628.1,3105.1z"/><path d="M7170.1,1355.5c-512.7-49.9-1017.4-227.4-1376.5-480.8c-293.3-207.5-622.5-584.5-734.2-841.9c-21.9-49.9-422.9-614.4-889.7-1256.8C3274-2452.8,3190.2-2582.5,3096.4-2909.7c-39.9-137.7-45.9-205.5-45.9-478.8c0-299.2,4-329.2,55.9-478.8c31.9-87.8,89.8-213.5,129.7-279.3c83.8-135.7,227.4-289.3,273.3-289.3c69.8,0,51.9,61.8-49.9,173.6c-217.4,243.4-335.1,606.4-313.2,963.6c33.9,528.7,287.3,995.5,744.1,1374.5c412.9,343.1,895.7,552.6,1474.3,642.4c251.4,39.9,776,29.9,1047.3-18c1200.9-215.4,2056.8-1045.4,2054.8-1994.9c-2-548.6-247.4-841.9-812-967.5c-191.5-43.9-227.4-43.9-1681.7-43.9H4486.9l-191.5,53.9c-444.9,121.7-658.3,323.2-714.2,676.3c-147.6,901.7,550.6,1687.7,1697.7,1917.2c287.3,55.8,786,61.8,1067.3,10c829.9-151.6,1478.2-624.4,1697.7-1234.9c45.9-127.7,51.9-177.5,51.9-405c2-231.4-2-267.3-41.9-343.1c-85.8-159.6-257.3-247.4-582.5-295.2c-285.3-43.9-2767-41.9-2950.5,0c-389,91.8-602.5,307.2-602.5,608.5c0,452.9,303.2,851.8,847.9,1119.2c726.2,353.1,1693.7,307.2,2352.1-115.7c287.2-183.5,514.7-452.9,590.5-702.2c41.9-129.7,57.9-355.1,31.9-434.9c-16-51.9-127.7-97.7-321.2-127.7c-191.5-27.9-2689.2-29.9-2794.9,0c-213.5,59.8-327.2,181.5-327.2,349.1c2,313.2,373.1,654.3,887.8,815.9c458.8,143.6,1059.3,117.7,1490.2-65.8c297.3-125.7,554.6-345.1,662.3-562.6c63.8-127.7,65.8-167.6,7.9-189.5c-65.8-21.9-2403.9-8-2493.7,16c-259.3,67.8,27.9,347.1,496.7,480.8c133.7,37.9,203.5,45.9,484.8,45.9c341.1,0,426.9-14,680.3-107.7c251.4-95.8,239.4-97.7-470.8-93.8c-628.4,2-658.3,0-664.3-35.9c-4-20,4-43.9,20-53.8c14-10,365.1-18,780-18c728.2,0,752.1,2,752.1,37.9c0,53.8-97.8,129.7-287.3,221.4c-193.5,93.8-426.9,151.6-676.3,171.6c-578.5,41.9-1268.8-231.4-1322.6-526.7c-17.9-97.8,18-159.6,127.7-209.5c93.8-43.9,99.7-43.9,1360.6-43.9c983.5,0,1278.8,6,1324.7,25.9c53.8,23.9,55.8,29.9,43.9,119.7c-29.9,225.4-219.4,484.8-478.8,658.3c-766.1,512.7-1992.9,422.9-2593.4-185.5c-141.6-143.6-251.4-357.1-251.4-486.8c0-131.7,81.8-287.3,185.5-357.1c207.5-139.6,129.7-133.7,1520.2-139.6c1528.1-6,1749.6,12,1907.1,151.6c53.8,47.9,63.8,71.8,71.8,189.5c51.9,626.4-522.7,1226.9-1380.5,1444.3c-267.3,67.8-821.9,87.8-1099.2,37.9c-776-133.7-1368.5-574.6-1536.1-1139.1c-21.9-71.8-35.9-187.5-35.9-291.3c0-145.7,8-185.5,53.9-283.3c93.8-187.5,271.3-319.2,562.6-413c137.7-45.9,153.6-45.9,1396.5-51.9c1578-8,1779.5,8,2078.7,153.6c205.5,99.7,297.2,253.4,319.2,536.7c19.9,261.3-59.9,568.6-215.4,833.9c-87.8,145.7-428.9,492.8-596.5,600.5c-279.3,181.5-634.4,323.2-991.5,395c-253.3,51.9-925.6,49.9-1163,0c-921.7-199.5-1584-730.1-1757.6-1406.4c-51.9-203.5-51.9-560.6-2-744.1c117.7-426.9,476.8-654.4,1121.2-712.2c103.7-10,768.1-16,1476.3-14c1079.3,4,1316.7,10,1476.3,35.9c538.6,91.8,813.9,293.3,955.6,696.2C8566.6-3576,9592-1455.4,9745.6-1170.1c129.7,243.4,165.6,395,151.6,664.3c-19.9,397-151.6,706.2-438.9,1041.4C8979.5,1096.2,8017.9,1441.3,7170.1,1355.5z M7449.4,571.5c736.1-89.8,1400.4-353.1,1701.7-674.3c51.9-55.9,93.8-105.7,93.8-111.7c0-4-109.7,35.9-243.4,91.8c-434.9,175.5-873.8,291.3-1432.3,379c-249.4,37.9-371.1,43.9-877.8,43.9c-540.6,2-764.1-12-977.5-61.8l-49.9-12l39.9,43.9c51.9,59.8,327.2,191.5,488.8,233.4C6515.7,587.5,7068.4,617.4,7449.4,571.5z M7251.9-76.9C7892.2-186.6,8385-394,8690.2-683.3c75.8-69.8,135.7-133.7,135.7-141.7c0-10-77.8,18-173.6,57.9c-486.7,211.5-1145.1,375-1791.4,442.9c-456.9,47.9-1384.5,16-1580-55.9c-33.9-12-33.9-10,2,29.9c85.8,97.8,355.1,213.5,642.4,273.3C6248.4-9,6856.9-9,7251.9-76.9z M6739.2-677.3c442.9-61.9,927.7-217.5,1234.8-397c141.7-83.8,432.9-331.2,432.9-371.1c0-8-59.8,12-133.7,45.9C7824.4-1196,7216-1036.4,6561.6-952.6c-367.1,47.9-1129.2,47.9-1462.3,0c-135.6-19.9-249.4-31.9-255.3-25.9c-16,14,185.5,135.7,309.2,185.5C5542.2-635.4,6132.7-593.5,6739.2-677.3z"/></g></g>
</svg>